<?xml version="1.0" standalone="no"?>
<!DOCTYPE svg PUBLIC "-//W3C//DTD SVG 20010904//EN"
 "http://www.w3.org/TR/2001/REC-SVG-20010904/DTD/svg10.dtd">
<svg version="1.0" xmlns="http://www.w3.org/2000/svg"
 width="1280.000000pt" height="882.000000pt" viewBox="0 0 1280.000000 882.000000"
 preserveAspectRatio="xMidYMid meet">
<g transform="translate(0.000000,882.000000) scale(0.100000,-0.100000)"
fill="#000000" stroke="none">
<path d="M9380 8700 c0 -73 4 -120 10 -120 6 0 10 17 10 38 0 21 5 43 12 50 9
9 68 12 205 12 164 0 193 2 193 15 0 12 -32 15 -202 17 l-203 3 -3 53 c-2 28
-7 52 -13 52 -5 0 -9 -51 -9 -120z"/>
<path d="M8734 8765 c-11 -28 4 -41 87 -70 46 -16 83 -34 83 -40 0 -5 -38 -24
-84 -40 -76 -27 -85 -33 -88 -58 -2 -15 1 -27 7 -27 6 0 57 19 113 42 84 34
119 43 188 48 84 5 85 5 88 33 l3 27 -74 0 c-65 0 -87 6 -196 49 -96 40 -123
47 -127 36z"/>
<path d="M4724 8619 c-10 -16 11 -31 73 -54 31 -11 58 -25 60 -32 2 -6 -24
-20 -62 -33 -37 -12 -69 -28 -72 -36 -12 -32 12 -31 101 7 72 30 108 39 150
39 49 0 56 2 56 20 0 18 -7 20 -54 20 -37 0 -76 9 -127 31 -119 49 -118 49
-125 38z"/>
<path d="M9383 8498 c3 -10 46 -13 170 -13 91 0 168 -3 171 -6 11 -11 -16 -24
-181 -89 -146 -57 -163 -66 -163 -87 l0 -23 215 0 c133 0 215 4 215 10 0 6
-70 11 -177 12 -115 2 -178 7 -180 14 -2 6 76 42 174 81 148 58 179 73 181 91
3 22 3 22 -213 22 -169 0 -216 -3 -212 -12z"/>
<path d="M8737 8474 c-4 -4 -7 -56 -7 -116 l0 -108 25 0 c22 0 25 4 25 39 0
26 5 41 16 45 9 3 87 6 175 6 l159 0 0 25 0 25 -172 2 -173 3 -5 40 c-5 38
-25 56 -43 39z"/>
<path d="M2670 8456 c-14 -8 -36 -34 -49 -58 -35 -62 -51 -78 -81 -78 -53 0
-69 57 -25 86 31 20 34 54 5 54 -45 0 -78 -62 -66 -124 8 -39 21 -53 66 -66
52 -15 91 8 129 74 34 61 65 82 105 72 46 -12 47 -83 1 -104 -17 -8 -25 -19
-23 -29 5 -27 33 -27 64 1 26 21 29 31 29 81 0 50 -3 60 -28 81 -32 27 -87 32
-127 10z"/>
<path d="M5270 8335 c0 -107 3 -135 14 -135 9 0 15 18 19 57 6 58 17 73 53 73
32 0 44 -20 44 -77 0 -40 4 -53 15 -53 13 0 15 22 15 135 0 113 -2 135 -15
135 -11 0 -15 -12 -15 -48 0 -52 -12 -72 -44 -72 -35 0 -46 15 -53 68 -4 34
-10 52 -19 52 -11 0 -14 -28 -14 -135z"/>
<path d="M5542 8463 c-26 -10 -42 -62 -42 -133 0 -120 43 -165 123 -129 35 16
48 51 48 128 0 76 -12 115 -40 130 -20 11 -66 13 -89 4z m89 -64 c12 -42 9
-109 -6 -145 -12 -30 -19 -35 -42 -32 -37 4 -57 60 -49 138 6 68 35 100 70 77
11 -8 24 -25 27 -38z"/>
<path d="M5740 8336 c0 -114 2 -136 15 -136 12 0 15 17 15 95 0 52 4 95 9 95
4 0 24 -42 44 -92 30 -81 38 -93 59 -93 23 0 23 2 26 110 3 115 -2 155 -18
155 -6 0 -10 -34 -10 -77 0 -71 -14 -123 -26 -98 -3 6 -20 46 -38 90 -25 62
-37 81 -54 83 -22 3 -22 2 -22 -132z"/>
<path d="M5980 8335 l0 -135 70 0 c40 0 70 4 70 10 0 6 -19 10 -43 10 -52 0
-67 13 -67 57 0 37 21 53 69 53 46 0 37 18 -10 22 -48 3 -65 23 -55 61 6 24
11 27 51 27 33 0 45 4 45 15 0 12 -14 15 -65 15 l-65 0 0 -135z"/>
<path d="M6197 8458 c-9 -7 -20 -27 -23 -45 -7 -35 9 -55 76 -97 26 -16 36
-30 38 -53 5 -52 -54 -69 -79 -22 -11 22 -39 26 -39 6 0 -50 86 -74 133 -37
54 43 28 116 -53 150 -34 14 -49 52 -30 75 18 21 47 19 60 -5 12 -23 40 -27
40 -7 0 39 -85 63 -123 35z"/>
<path d="M6370 8456 c0 -9 12 -16 28 -18 l27 -3 3 -117 c2 -109 4 -118 22
-118 18 0 20 9 22 118 l3 117 28 3 c15 2 27 9 27 18 0 11 -17 14 -80 14 -63 0
-80 -3 -80 -14z"/>
<path d="M6580 8463 c0 -5 16 -47 35 -93 21 -51 35 -102 35 -127 0 -32 4 -43
15 -43 11 0 15 12 15 44 0 28 13 74 35 126 39 92 41 100 21 100 -9 0 -24 -25
-37 -60 -12 -34 -27 -59 -33 -57 -6 2 -20 28 -31 58 -12 32 -28 55 -38 57 -9
2 -17 0 -17 -5z"/>
<path d="M865 8381 c-54 -23 -79 -95 -52 -147 9 -18 37 -42 69 -58 76 -41 98
-64 98 -101 0 -70 -72 -88 -116 -30 -19 25 -34 35 -48 33 -31 -4 -23 -46 14
-80 25 -23 39 -28 83 -28 67 0 112 26 125 73 21 75 -6 119 -101 170 -64 33
-82 62 -67 101 17 45 75 42 100 -4 6 -12 21 -20 35 -20 32 0 33 29 2 66 -18
21 -34 27 -73 30 -27 2 -58 0 -69 -5z"/>
<path d="M1803 8375 c-39 -17 -53 -42 -53 -94 0 -50 26 -80 100 -119 60 -32
86 -68 76 -108 -14 -54 -94 -56 -121 -4 -16 30 -48 40 -60 19 -12 -18 16 -69
46 -84 15 -8 51 -15 80 -15 45 0 55 4 85 34 29 29 34 41 34 79 0 57 -22 84
-99 126 -85 45 -106 94 -56 127 31 20 69 8 80 -25 4 -15 15 -21 36 -21 32 0
35 7 17 45 -23 51 -99 69 -165 40z"/>
<path d="M4725 8377 c-3 -7 -5 -47 -3 -88 2 -60 6 -74 20 -77 12 -2 17 5 20
30 l3 33 133 3 c123 2 132 4 132 22 0 18 -9 20 -132 22 l-133 3 -5 29 c-5 32
-27 46 -35 23z"/>
<path d="M1120 8181 c0 -172 2 -200 16 -205 26 -10 164 -7 185 4 10 6 19 17
19 25 0 12 -15 15 -67 15 -38 0 -74 4 -81 9 -9 5 -12 26 -10 67 l3 59 65 5
c58 4 65 7 68 28 3 20 0 22 -51 22 -81 0 -87 4 -87 61 0 59 14 69 94 69 49 0
56 2 56 20 0 19 -7 20 -105 20 l-105 0 0 -199z"/>
<path d="M1410 8181 c0 -157 3 -200 13 -204 31 -12 36 9 39 146 2 76 7 138 13
140 5 1 22 -32 37 -73 16 -41 40 -105 54 -142 27 -71 47 -88 84 -68 20 11 20
18 18 203 l-3 192 -27 3 -28 3 0 -135 c0 -78 -4 -136 -9 -136 -6 0 -33 61 -62
135 l-52 135 -39 0 -38 0 0 -199z"/>
<path d="M2070 8181 c0 -172 2 -200 16 -205 9 -3 49 -6 89 -6 86 0 105 6 105
31 0 16 -10 19 -72 21 l-73 3 -3 67 -3 67 68 3 c61 3 68 5 71 25 3 21 -1 22
-65 25 l-68 3 -3 54 c-4 66 2 71 86 71 55 0 62 2 62 20 0 19 -7 20 -105 20
l-105 0 0 -199z"/>
<path d="M2668 8189 c-10 -5 -30 -31 -44 -57 -39 -68 -54 -82 -84 -82 -53 0
-69 57 -25 86 27 18 34 54 11 54 -41 0 -76 -43 -76 -95 0 -33 24 -81 45 -89
25 -9 84 -7 105 4 10 5 32 35 49 65 34 60 65 81 105 71 47 -12 47 -83 0 -105
-16 -7 -24 -18 -22 -28 5 -27 33 -27 64 1 26 21 29 31 29 81 0 50 -3 60 -28
81 -30 26 -96 33 -129 13z"/>
<path d="M9790 8127 c0 -43 -5 -78 -12 -85 -7 -7 -43 -12 -90 -12 -91 0 -98 7
-98 94 0 31 -4 56 -10 56 -6 0 -10 -28 -10 -63 0 -36 -5 -68 -12 -75 -7 -7
-39 -12 -73 -12 -34 0 -66 5 -73 12 -7 7 -12 40 -12 80 0 39 -4 68 -10 68 -6
0 -10 -38 -10 -95 l0 -95 215 0 215 0 0 100 c0 60 -4 100 -10 100 -6 0 -10
-31 -10 -73z"/>
<path d="M8737 8183 c-15 -15 -6 -43 16 -48 12 -3 101 -4 197 -3 l175 3 3 28
3 27 -194 0 c-106 0 -197 -3 -200 -7z"/>
<path d="M4725 8150 c-15 -25 13 -30 156 -30 142 0 149 1 149 20 0 19 -7 20
-149 20 -89 0 -152 -4 -156 -10z"/>
<path d="M9095 8067 c-2 -6 -6 -37 -7 -67 l-3 -55 -175 -5 -175 -5 0 -25 0
-25 198 -3 197 -2 0 94 c0 75 -3 95 -15 100 -9 3 -18 0 -20 -7z"/>
<path d="M5000 8010 l0 -50 -124 0 c-68 0 -131 -3 -140 -6 -23 -9 -19 -31 7
-38 37 -10 257 -7 278 4 31 17 26 140 -7 140 -10 0 -14 -14 -14 -50z"/>
<path d="M5262 7998 c3 -7 48 -30 101 -51 53 -22 97 -45 97 -51 0 -7 -44 -30
-97 -52 -53 -21 -98 -45 -101 -51 -6 -21 18 -15 133 34 97 42 121 48 200 53
52 3 89 9 88 15 -2 6 -44 13 -95 16 -82 5 -106 11 -200 52 -112 49 -132 55
-126 35z"/>
<path d="M2460 7841 l0 -91 180 0 180 0 0 90 c0 83 -2 90 -20 90 -16 0 -19 -8
-22 -62 l-3 -63 -60 0 -60 0 -3 58 c-3 48 -6 57 -22 57 -16 0 -19 -9 -22 -57
l-3 -58 -50 0 -50 0 -5 60 c-4 47 -9 61 -22 63 -16 3 -18 -6 -18 -87z"/>
<path d="M9380 7862 c0 -27 2 -28 138 -61 210 -50 212 -51 212 -62 0 -12 1
-12 -150 -44 -205 -43 -200 -41 -200 -75 l0 -30 215 0 c184 0 215 2 215 15 0
13 -28 15 -190 15 -105 0 -190 4 -190 9 0 11 5 12 195 51 184 38 185 38 185
55 0 21 -4 22 -191 65 -94 21 -177 44 -182 49 -8 8 47 11 181 11 164 0 192 2
192 15 0 13 -31 15 -215 15 l-215 0 0 -28z"/>
<path d="M4725 7830 c-15 -25 13 -30 156 -30 142 0 149 1 149 20 0 19 -7 20
-149 20 -89 0 -152 -4 -156 -10z"/>
<path d="M8730 7765 l0 -25 200 0 200 0 0 25 0 25 -200 0 -200 0 0 -25z"/>
<path d="M2122 7755 c-12 -9 -34 -37 -49 -63 -38 -68 -53 -82 -83 -82 -53 0
-69 57 -25 86 15 10 25 26 25 40 0 30 -21 31 -55 1 -52 -44 -39 -154 21 -177
62 -24 109 1 149 79 29 59 48 74 87 74 60 0 76 -58 28 -103 -37 -35 -42 -75
-7 -65 45 14 70 50 71 103 1 57 -16 95 -51 111 -34 16 -85 14 -111 -4z"/>
<path d="M4898 7721 c-25 -20 -28 -21 -61 -5 -70 33 -119 -10 -115 -101 l3
-50 149 -3 c85 -1 154 2 159 7 14 14 -1 117 -21 141 -26 31 -81 36 -114 11z
m100 -49 c7 -9 12 -28 10 -42 -3 -23 -8 -25 -57 -28 -75 -4 -94 26 -45 74 28
29 68 27 92 -4z m-152 -10 c6 -13 9 -33 7 -43 -5 -17 -13 -20 -52 -17 -53 3
-63 22 -36 64 21 32 64 30 81 -4z"/>
<path d="M5260 7611 c0 -63 4 -112 10 -116 6 -4 10 9 10 32 0 21 4 44 8 50 6
9 62 13 200 15 257 4 263 22 8 26 -119 1 -194 7 -203 13 -7 7 -13 29 -13 50 0
22 -4 39 -10 39 -6 0 -10 -43 -10 -109z"/>
<path d="M8975 7661 c-12 -5 -27 -16 -34 -25 -17 -20 -35 -20 -51 -1 -14 17
-91 21 -120 5 -26 -14 -40 -63 -40 -136 l0 -64 200 0 200 0 0 80 c0 73 -2 82
-27 110 -30 34 -90 48 -128 31z m99 -70 c12 -13 16 -32 14 -58 l-3 -38 -49 -3
c-79 -5 -96 2 -96 43 0 47 29 75 78 75 26 0 45 -7 56 -19z m-192 -8 c23 -20
24 -78 2 -87 -30 -11 -91 -6 -104 9 -13 16 -7 60 12 82 15 18 68 16 90 -4z"/>
<path d="M2460 7640 c0 -19 7 -20 121 -20 85 0 120 -3 117 -11 -2 -7 -55 -31
-118 -54 -111 -41 -115 -44 -118 -74 l-3 -31 180 0 c174 0 181 1 181 20 0 19
-7 20 -130 20 -73 0 -130 4 -130 9 0 9 33 23 183 76 72 26 77 30 77 56 l0 29
-180 0 c-173 0 -180 -1 -180 -20z"/>
<path d="M9380 7405 c0 -66 4 -115 9 -115 6 0 11 21 13 48 l3 47 203 3 c170 2
202 5 202 17 0 13 -28 15 -186 15 -109 0 -193 4 -205 10 -14 8 -19 21 -19 50
0 22 -4 40 -10 40 -6 0 -10 -45 -10 -115z"/>
<path d="M1917 7474 c-4 -4 -7 -47 -7 -96 l0 -88 185 0 185 0 0 95 c0 88 -2
95 -20 95 -17 0 -19 -8 -22 -67 l-3 -68 -60 0 -60 0 -5 60 c-4 52 -8 60 -25
60 -17 0 -21 -8 -25 -60 l-5 -60 -50 0 -50 0 -5 64 c-5 59 -16 82 -33 65z"/>
<path d="M4725 7470 c-15 -25 13 -30 156 -30 142 0 149 1 149 20 0 19 -7 20
-149 20 -89 0 -152 -4 -156 -10z"/>
<path d="M5260 7415 c0 -13 27 -15 213 -13 283 4 282 22 -3 26 -184 2 -210 0
-210 -13z"/>
<path d="M4892 7351 c-15 -15 -36 -43 -47 -62 -22 -36 -56 -49 -81 -29 -20 18
-17 48 6 62 23 15 27 48 5 48 -28 0 -55 -38 -55 -78 0 -50 32 -82 81 -82 39 0
65 22 93 78 22 42 57 59 91 44 17 -8 25 -20 25 -36 0 -24 -23 -56 -41 -56 -5
0 -9 -9 -9 -20 0 -27 26 -25 55 5 19 18 25 35 25 65 0 84 -91 122 -148 61z"/>
<path d="M8945 7341 c-88 -21 -172 -40 -187 -44 -24 -6 -28 -13 -28 -42 0 -44
1 -45 205 -90 88 -20 168 -38 178 -41 15 -5 18 -1 15 22 -3 24 -9 30 -48 39
l-45 11 0 54 0 55 48 9 c43 9 47 12 47 38 0 16 -5 28 -12 27 -7 0 -85 -17
-173 -38z m33 -89 c4 -42 -7 -45 -96 -28 -108 21 -110 32 -9 52 90 18 101 15
105 -24z"/>
<path d="M2460 7335 l0 -25 180 0 180 0 0 25 0 25 -180 0 -180 0 0 -25z"/>
<path d="M5289 7280 c-28 -28 -30 -33 -27 -102 l3 -73 208 0 c130 0 208 4 210
10 1 6 -34 11 -87 13 -50 2 -96 8 -103 14 -15 12 -17 56 -4 91 12 30 35 39
126 46 95 8 81 26 -18 25 -56 -1 -82 -6 -95 -18 -24 -21 -38 -20 -69 4 -41 32
-107 27 -144 -10z m148 -23 c20 -20 29 -93 13 -112 -9 -11 -32 -15 -80 -15
-82 0 -95 11 -87 72 8 58 37 82 95 75 24 -3 51 -11 59 -20z"/>
<path d="M9590 7246 c-198 -50 -205 -53 -208 -78 -2 -18 2 -28 15 -32 33 -10
395 -96 404 -96 5 0 9 6 9 13 0 9 -22 19 -57 27 -32 7 -64 17 -70 22 -8 6 -13
34 -13 69 l0 58 43 12 c23 6 53 15 67 19 22 6 43 41 23 39 -4 0 -100 -24 -213
-53z m45 -81 l0 -50 -35 3 c-58 5 -175 36 -173 47 2 11 158 54 188 52 17 -2
20 -9 20 -52z"/>
<path d="M8261 7238 c-61 -33 -83 -76 -79 -155 3 -55 8 -67 37 -97 18 -19 69
-54 114 -77 86 -47 117 -82 117 -135 0 -17 -9 -43 -21 -58 -16 -21 -29 -26
-63 -26 -50 0 -73 15 -95 61 -13 28 -22 34 -51 37 -55 4 -64 -7 -49 -57 28
-94 139 -142 254 -110 87 24 128 80 127 175 -1 90 -33 130 -151 189 -94 47
-121 73 -121 120 0 43 36 85 73 85 32 0 73 -33 81 -65 6 -23 11 -25 57 -25
l52 0 -7 33 c-15 76 -73 120 -164 125 -56 3 -74 0 -111 -20z"/>
<path d="M5864 7233 c3 -10 37 -142 76 -293 39 -151 75 -285 80 -297 8 -20 17
-23 64 -23 31 0 58 5 63 13 8 10 163 590 163 610 0 5 -23 7 -52 5 l-52 -3 -55
-248 c-30 -136 -58 -246 -64 -244 -5 1 -24 75 -42 162 -18 88 -42 198 -52 245
l-19 85 -58 3 c-52 3 -57 1 -52 -15z"/>
<path d="M6456 7242 c-7 -12 -146 -590 -146 -608 0 -12 11 -14 47 -12 l47 3
17 74 c9 40 23 77 30 82 24 15 136 11 152 -6 8 -7 18 -35 22 -61 13 -88 19
-96 72 -92 41 3 48 6 45 23 -1 11 -35 152 -73 313 l-71 292 -68 0 c-38 0 -71
-4 -74 -8z m107 -232 c14 -69 23 -128 21 -132 -7 -11 -112 -10 -118 1 -6 9 40
246 51 264 11 19 22 -12 46 -133z"/>
<path d="M6832 6938 l3 -313 150 -3 c132 -2 151 -1 162 15 7 9 13 27 13 40 0
23 -2 23 -103 23 -67 0 -107 4 -115 12 -9 9 -12 84 -12 275 l0 263 -50 0 -50
0 2 -312z"/>
<path d="M7227 7244 c-10 -11 -8 -398 3 -473 16 -113 69 -156 190 -156 96 0
145 23 177 85 22 42 23 52 23 297 l0 253 -50 0 -50 0 0 -240 c0 -264 -5 -291
-58 -311 -36 -14 -85 -4 -108 22 -17 19 -19 44 -24 273 l-5 251 -45 3 c-25 2
-49 0 -53 -4z"/>
<path d="M7752 6938 l3 -313 154 -3 c85 -1 158 1 162 5 4 5 10 23 14 41 l7 32
-109 0 c-59 0 -114 4 -121 8 -9 6 -12 34 -10 103 l3 94 102 3 c100 3 103 3
109 27 12 49 2 55 -98 55 -51 0 -99 4 -106 9 -9 5 -12 30 -10 87 l3 79 110 5
110 5 0 35 0 35 -163 3 -162 2 2 -312z"/>
<path d="M2240 7160 c0 -48 -4 -61 -19 -70 -11 -5 -84 -10 -165 -10 l-146 0 0
-25 0 -25 185 0 185 0 0 95 c0 88 -1 95 -20 95 -18 0 -20 -7 -20 -60z"/>
<path d="M2460 7195 c0 -23 3 -24 73 -27 71 -3 72 -3 75 -32 2 -15 1 -39 -2
-52 -6 -22 -11 -24 -76 -24 -68 0 -70 -1 -70 -25 l0 -25 180 0 180 0 0 25 c0
24 -2 24 -82 27 l-83 3 0 50 0 50 83 3 c80 3 82 3 82 27 l0 25 -180 0 -180 0
0 -25z"/>
<path d="M4727 7133 c-19 -18 1 -23 92 -23 144 0 143 -15 -1 -66 -81 -29 -104
-45 -95 -68 9 -23 307 -24 307 -1 0 12 -18 15 -104 15 -58 0 -107 4 -111 9 -4
8 98 53 172 75 32 10 53 34 47 51 -5 12 -33 15 -153 15 -81 0 -151 -3 -154 -7z"/>
<path d="M8730 7011 c0 -82 3 -110 13 -114 22 -8 35 6 39 43 l3 35 173 3 172
2 0 30 0 30 -172 2 -173 3 -3 38 c-3 32 -7 37 -28 37 -24 0 -24 0 -24 -109z"/>
<path d="M5300 6987 c-15 -7 -31 -29 -39 -52 -12 -35 -11 -45 2 -78 25 -58 84
-81 212 -81 55 0 117 6 137 13 72 24 97 90 61 153 -14 23 -15 32 -5 35 6 3 12
9 12 14 0 5 -49 9 -110 9 l-110 0 0 -50 c0 -27 5 -50 10 -50 6 0 10 9 10 19 0
43 10 51 67 51 94 0 142 -45 114 -106 -18 -40 -71 -56 -187 -56 -117 0 -172
18 -188 63 -14 41 1 79 34 92 17 6 30 17 30 24 0 16 -18 16 -50 0z"/>
<path d="M9380 6877 l0 -97 215 0 215 0 0 95 c0 114 -18 128 -22 18 l-3 -78
-89 -3 c-65 -2 -92 1 -98 10 -4 7 -8 41 -8 76 0 86 -18 78 -22 -10 l-3 -73
-80 0 -80 0 -3 70 c-5 110 -22 104 -22 -8z"/>
<path d="M1963 6945 c-43 -19 -53 -42 -53 -129 l0 -76 185 0 185 0 0 25 c0 23
-3 24 -77 27 l-78 3 -5 50 c-7 65 -22 90 -61 104 -41 14 -57 13 -96 -4z m101
-64 c11 -12 16 -31 14 -53 -3 -33 -3 -33 -60 -36 -48 -3 -58 0 -67 17 -12 22
1 70 22 83 23 14 74 8 91 -11z"/>
<path d="M2460 6845 c0 -97 1 -105 19 -105 16 0 20 8 23 38 l3 37 158 3 157 3
0 24 0 24 -157 3 -158 3 -3 38 c-3 29 -7 37 -23 37 -18 0 -19 -8 -19 -105z"/>
<path d="M4773 6875 c-36 -15 -53 -41 -53 -80 0 -65 50 -95 160 -95 110 0 160
30 160 95 0 39 -18 65 -55 81 -44 18 -170 18 -212 -1z m195 -36 c41 -14 51
-45 23 -72 -17 -17 -36 -22 -96 -25 -107 -6 -156 18 -140 69 3 10 18 22 33 28
37 13 142 13 180 0z"/>
<path d="M8784 6840 c-34 -13 -54 -50 -54 -98 0 -87 78 -127 235 -120 130 6
175 37 175 123 0 41 -41 91 -82 101 -25 5 -28 3 -28 -20 0 -14 5 -26 10 -26 6
0 22 -11 35 -24 31 -31 23 -64 -21 -82 -38 -16 -199 -19 -238 -4 -53 20 -57
79 -8 102 16 8 27 21 27 33 0 22 -20 28 -51 15z"/>
<path d="M5658 6633 l-3 -78 -84 -3 c-61 -2 -87 1 -92 10 -5 7 -9 41 -9 76 0
40 -4 61 -10 57 -5 -3 -10 -30 -10 -60 0 -83 -2 -85 -85 -85 -84 0 -85 1 -85
91 0 33 -4 59 -10 59 -6 0 -10 -37 -10 -90 l0 -90 213 2 212 3 0 89 c0 61 -4
91 -12 93 -9 3 -13 -18 -15 -74z"/>
<path d="M2484 6665 c-23 -23 -25 -31 -22 -102 l3 -78 175 0 c174 0 175 0 178
23 3 21 0 22 -55 22 -89 0 -103 6 -103 46 0 46 29 64 102 64 55 0 58 1 58 25
0 24 -3 25 -56 25 -31 0 -71 -7 -91 -17 -33 -15 -37 -15 -63 0 -42 25 -96 22
-126 -8z m118 -42 c10 -9 18 -30 18 -49 0 -30 -3 -34 -37 -40 -75 -14 -114 27
-79 82 20 29 70 33 98 7z"/>
<path d="M9405 6655 c-22 -22 -25 -32 -25 -105 l0 -80 215 0 c184 0 215 2 215
15 0 12 -18 15 -100 15 -99 0 -100 0 -106 26 -4 14 -1 43 5 64 14 46 45 60
137 60 52 0 64 3 64 16 0 24 -160 17 -187 -8 -25 -23 -39 -23 -65 2 -33 31
-121 28 -153 -5z m146 -24 c19 -15 23 -28 24 -72 l0 -54 -85 0 -85 0 -3 47
c-3 40 1 52 22 73 31 31 92 34 127 6z"/>
<path d="M3000 6635 c0 -8 7 -15 15 -15 8 0 15 7 15 15 0 8 -7 15 -15 15 -8 0
-15 -7 -15 -15z"/>
<path d="M3140 6635 c0 -8 4 -15 10 -15 5 0 11 -44 13 -97 l3 -98 2 113 c2 94
0 112 -13 112 -8 0 -15 -7 -15 -15z"/>
<path d="M3344 6625 c21 -39 21 -141 0 -180 -15 -29 -14 -29 3 -12 26 26 26
178 0 204 -17 17 -18 17 -3 -12z"/>
<path d="M3460 6538 l5 -113 3 99 c1 55 8 106 14 113 8 10 6 13 -8 13 -18 0
-19 -7 -14 -112z"/>
<path d="M3584 6535 c0 -66 1 -92 3 -57 2 34 2 88 0 120 -2 31 -3 3 -3 -63z"/>
<path d="M3651 6634 c0 -11 3 -14 6 -6 3 7 2 16 -1 19 -3 4 -6 -2 -5 -13z"/>
<path d="M3860 6640 c0 -5 7 -10 15 -10 8 0 15 5 15 10 0 6 -7 10 -15 10 -8 0
-15 -4 -15 -10z"/>
<path d="M4006 6635 c4 -8 7 -15 9 -15 1 0 8 7 15 15 10 13 9 15 -8 15 -15 0
-20 -5 -16 -15z"/>
<path d="M4226 6628 c-11 -15 -16 -45 -16 -94 0 -58 4 -76 21 -95 l21 -24 -16
25 c-22 33 -22 157 0 188 8 12 13 22 10 22 -3 0 -12 -10 -20 -22z"/>
<path d="M4311 6633 c7 -12 15 -20 18 -17 3 2 -3 12 -13 22 -17 16 -18 16 -5
-5z"/>
<path d="M4410 6632 c0 -10 7 -19 15 -19 17 0 17 0 9 21 -8 22 -24 20 -24 -2z"/>
<path d="M4770 6637 c-35 -18 -51 -54 -48 -112 l3 -50 153 -3 c147 -2 152 -2
152 18 0 17 -6 20 -49 20 -67 0 -81 7 -81 41 0 44 -20 77 -53 89 -38 13 -46
13 -77 -3z m89 -51 c7 -8 11 -27 9 -43 -3 -25 -7 -28 -46 -31 -54 -4 -76 12
-67 47 4 14 12 29 18 33 20 13 74 9 86 -6z"/>
<path d="M1912 6613 l3 -28 160 -3 c189 -3 205 -1 205 33 l0 25 -186 0 -185 0
3 -27z"/>
<path d="M3250 6621 c-5 -11 -10 -30 -9 -43 1 -18 3 -17 8 8 4 17 11 36 15 42
4 7 5 12 2 12 -3 0 -10 -9 -16 -19z"/>
<path d="M4134 6535 c0 -60 1 -84 3 -52 2 32 2 81 0 110 -2 29 -3 3 -3 -58z"/>
<path d="M3771 6614 c0 -11 3 -14 6 -6 3 7 2 16 -1 19 -3 4 -6 -2 -5 -13z"/>
<path d="M3661 6594 c0 -11 3 -14 6 -6 3 7 2 16 -1 19 -3 4 -6 -2 -5 -13z"/>
<path d="M4333 6535 c0 -38 2 -53 4 -32 2 20 2 52 0 70 -2 17 -4 1 -4 -38z"/>
<path d="M3671 6554 c0 -11 3 -14 6 -6 3 7 2 16 -1 19 -3 4 -6 -2 -5 -13z"/>
<path d="M8737 6554 c-4 -4 -7 -47 -7 -95 0 -84 1 -89 23 -94 12 -3 101 -4
197 -3 l175 3 3 98 c3 92 2 97 -18 97 -18 0 -20 -6 -20 -57 0 -79 -5 -85 -76
-81 l-59 3 -5 60 c-4 52 -8 60 -27 63 -20 3 -22 -1 -25 -60 l-3 -63 -55 0 -55
0 -5 65 c-4 48 -9 66 -20 68 -9 1 -19 0 -23 -4z"/>
<path d="M3909 6530 c-2 -14 4 -41 13 -60 21 -41 22 -33 5 35 -11 41 -14 45
-18 25z"/>
<path d="M3003 6490 c0 -30 2 -43 4 -27 2 15 2 39 0 55 -2 15 -4 2 -4 -28z"/>
<path d="M3826 6497 c-7 -27 -5 -28 17 -7 15 15 15 18 3 23 -9 4 -16 -2 -20
-16z"/>
<path d="M1935 6487 c-37 -31 -44 -99 -16 -144 47 -75 277 -86 342 -17 17 18
23 37 23 75 1 45 -3 54 -32 80 -36 32 -60 37 -69 13 -3 -10 7 -27 31 -48 40
-37 40 -39 26 -66 -14 -26 -63 -40 -147 -40 -83 0 -138 18 -148 49 -8 26 9 58
35 66 13 4 20 15 20 31 0 31 -29 32 -65 1z"/>
<path d="M3241 6489 c-1 -15 7 -35 17 -46 9 -10 13 -13 8 -6 -5 7 -12 28 -16
46 -7 29 -8 30 -9 6z"/>
<path d="M3072 6447 c3 -24 21 -27 26 -4 2 8 -4 17 -13 21 -13 4 -16 1 -13
-17z"/>
<path d="M4514 6463 c-13 -5 -6 -43 7 -43 14 0 23 30 13 39 -5 5 -14 7 -20 4z"/>
<path d="M4311 6437 c-13 -21 -12 -21 5 -5 10 10 16 20 13 22 -3 3 -11 -5 -18
-17z"/>
<path d="M3700 6435 c0 -8 7 -15 15 -15 8 0 15 7 15 15 0 8 -7 15 -15 15 -8 0
-15 -7 -15 -15z"/>
<path d="M5260 6340 c0 -67 4 -110 10 -110 6 0 10 15 10 34 0 63 10 66 215 66
167 0 222 7 179 24 -9 3 -98 6 -199 6 -200 0 -195 -2 -195 61 0 16 -4 29 -10
29 -6 0 -10 -43 -10 -110z"/>
<path d="M2515 6392 c-99 -47 -81 -173 29 -201 102 -25 221 -7 261 41 42 50
26 130 -32 158 -15 7 -71 15 -123 17 -78 3 -102 0 -135 -15z m217 -42 c61 -17
75 -74 24 -98 -68 -31 -213 -25 -247 9 -50 50 10 99 121 99 36 0 82 -5 102
-10z"/>
<path d="M4892 6381 c-15 -15 -36 -43 -47 -62 -22 -36 -56 -49 -81 -29 -20 18
-17 48 6 62 23 15 27 48 5 48 -28 0 -55 -38 -55 -78 0 -50 32 -82 81 -82 39 0
65 22 93 78 22 42 57 59 91 44 17 -8 25 -20 25 -36 0 -24 -23 -56 -41 -56 -5
0 -9 -9 -9 -20 0 -27 26 -25 55 5 19 18 25 35 25 65 0 84 -91 122 -148 61z"/>
<path d="M9380 6285 c0 -70 4 -115 10 -115 6 0 10 17 10 38 0 21 5 43 12 50 9
9 68 12 205 12 164 0 193 2 193 15 0 12 -32 15 -202 17 l-203 3 -3 48 c-2 26
-7 47 -13 47 -5 0 -9 -49 -9 -115z"/>
<path d="M5900 6379 c0 -6 38 -28 85 -50 47 -22 85 -44 85 -50 0 -5 -38 -28
-85 -49 -53 -24 -85 -45 -85 -55 0 -8 2 -15 5 -15 3 0 50 23 105 50 91 46 106
50 170 50 56 0 70 3 70 15 0 12 -14 15 -65 15 -58 0 -76 5 -165 50 -103 52
-120 57 -120 39z"/>
<path d="M6455 6378 c-3 -8 -4 -95 -3 -193 l3 -180 86 -3 c67 -2 89 1 98 12
21 26 2 36 -64 36 -59 0 -65 2 -71 23 -3 13 -4 41 -2 63 l3 39 65 5 c57 4 65
8 65 25 0 17 -8 21 -65 25 -63 5 -65 6 -68 34 -2 15 -1 39 2 52 6 22 11 24 72
24 62 0 65 1 62 23 -3 21 -8 22 -91 25 -65 2 -89 -1 -92 -10z"/>
<path d="M6765 6368 c-41 -32 -55 -76 -55 -172 0 -145 35 -196 135 -196 32 0
57 -7 77 -21 27 -20 31 -20 45 -6 14 14 13 18 -12 39 l-27 24 17 59 c31 107 9
240 -47 279 -33 23 -100 20 -133 -6z m95 -28 c26 -14 40 -64 39 -144 0 -93
-16 -138 -52 -150 -22 -8 -31 -6 -47 10 -44 43 -49 217 -8 269 21 27 38 31 68
15z"/>
<path d="M7037 6384 c-11 -12 -8 -288 4 -323 14 -38 54 -61 109 -61 60 0 97
23 110 68 7 21 10 95 8 177 -3 128 -5 140 -22 143 -10 2 -22 -2 -27 -10 -5 -7
-9 -79 -9 -159 0 -129 -2 -148 -18 -162 -23 -21 -52 -22 -78 -3 -17 13 -20 31
-24 173 -5 150 -6 158 -25 161 -12 2 -24 0 -28 -4z"/>
<path d="M7415 6380 c-4 -6 -26 -91 -49 -188 -33 -137 -40 -179 -30 -185 23
-13 42 4 49 44 8 47 39 64 92 54 29 -5 34 -11 39 -46 7 -43 37 -70 57 -50 8 8
-1 60 -34 194 l-45 182 -36 3 c-20 2 -39 -2 -43 -8z m62 -126 c21 -99 19 -106
-24 -102 -35 3 -38 5 -36 32 4 61 25 137 36 133 6 -2 17 -30 24 -63z"/>
<path d="M7646 6375 c-12 -32 -7 -350 6 -363 14 -14 156 -16 177 -3 8 5 11 16
8 25 -4 11 -23 16 -69 18 l-63 3 -5 165 c-5 159 -6 165 -26 168 -13 2 -24 -4
-28 -13z"/>
<path d="M7907 6383 c-4 -3 -7 -88 -7 -189 0 -159 2 -183 16 -188 38 -15 44 9
44 188 0 120 -4 176 -12 184 -13 13 -31 16 -41 5z"/>
<path d="M8027 6384 c-4 -4 -7 -16 -7 -26 0 -14 8 -18 40 -18 l40 0 0 -164 c0
-136 3 -165 15 -170 40 -15 44 -1 47 167 l3 162 40 5 c32 4 40 9 40 25 0 19
-8 20 -106 23 -58 1 -108 -1 -112 -4z"/>
<path d="M8306 6381 c-3 -5 15 -58 41 -118 37 -85 48 -124 52 -183 5 -66 8
-75 26 -75 18 0 21 9 26 75 4 59 15 98 53 184 46 109 49 135 10 122 -13 -4
-29 -33 -47 -86 -17 -47 -34 -79 -40 -77 -7 2 -18 21 -26 43 -35 98 -50 124
-70 124 -11 0 -22 -4 -25 -9z"/>
<path d="M8790 6282 c-46 -23 -60 -53 -60 -134 l0 -68 200 0 200 0 0 25 c0 25
-1 25 -79 25 -86 0 -91 4 -91 61 0 88 -85 134 -170 91z m115 -66 c9 -14 15
-37 13 -53 -3 -27 -5 -28 -65 -31 -53 -3 -63 0 -72 17 -8 14 -8 28 0 48 13 35
25 43 71 43 29 0 41 -6 53 -24z"/>
<path d="M2976 6254 c-8 -20 -8 -427 0 -448 3 -9 17 -16 30 -16 23 0 23 2 26
113 l3 112 93 3 c73 2 92 6 92 17 0 12 -17 15 -82 15 -46 0 -89 4 -96 9 -9 5
-12 30 -10 87 l3 79 100 5 c80 4 100 8 100 20 0 12 -22 15 -126 18 -109 2
-128 0 -133 -14z"/>
<path d="M3392 6253 c-11 -21 -132 -435 -132 -452 0 -6 11 -11 25 -11 25 0 27
4 50 102 11 42 27 49 106 46 l73 -3 21 -70 c19 -63 24 -70 49 -73 34 -4 37
-22 -47 263 l-62 210 -37 3 c-27 2 -39 -2 -46 -15z m79 -153 c16 -57 26 -107
23 -112 -3 -4 -32 -8 -65 -8 -55 0 -59 2 -59 23 0 13 6 46 14 73 8 27 20 68
26 92 6 24 16 42 22 40 6 -2 24 -51 39 -108z"/>
<path d="M3707 6263 c-4 -3 -7 -111 -7 -240 l0 -233 25 0 25 0 0 240 c0 226
-1 240 -18 240 -10 0 -22 -3 -25 -7z"/>
<path d="M3835 6259 c-12 -18 8 -28 65 -31 l55 -3 5 -215 5 -215 25 0 25 0 5
215 5 215 63 3 c53 3 63 6 60 20 -3 15 -21 17 -155 20 -103 2 -154 -1 -158 -9z"/>
<path d="M4237 6263 c-4 -3 -7 -112 -7 -240 l0 -234 28 3 27 3 3 113 3 113 97
-3 97 -3 3 -112 c3 -113 3 -113 27 -113 l25 0 0 240 0 240 -25 0 c-24 0 -24
-1 -27 -102 l-3 -103 -95 0 -95 0 -3 80 c-3 103 -8 125 -31 125 -10 0 -21 -3
-24 -7z"/>
<path d="M1910 6175 l0 -25 125 0 c69 0 125 -4 125 -9 0 -5 -56 -30 -125 -56
l-125 -48 0 -33 0 -34 185 0 c178 0 185 1 185 20 0 19 -7 20 -122 20 -68 0
-130 5 -138 10 -16 10 1 19 143 71 111 41 117 45 117 79 l0 30 -185 0 -185 0
0 -25z"/>
<path d="M4727 6174 c-4 -4 -7 -38 -7 -76 l0 -69 158 3 157 3 3 49 c4 62 -4
96 -23 96 -11 0 -15 -13 -15 -55 l0 -55 -55 0 -55 0 0 50 c0 38 -4 50 -15 50
-10 0 -15 -10 -15 -34 0 -57 -8 -66 -56 -66 l-43 0 -3 52 c-3 48 -15 68 -31
52z"/>
<path d="M5267 6163 c-20 -19 8 -23 164 -23 130 0 170 -3 167 -12 -3 -7 -78
-42 -169 -78 -136 -55 -165 -70 -167 -88 l-3 -22 211 0 c165 0 211 3 207 13
-3 9 -46 12 -168 12 -155 0 -193 6 -159 27 8 5 85 35 170 68 85 33 158 64 163
69 5 5 7 17 4 25 -6 14 -34 16 -210 16 -112 0 -207 -3 -210 -7z"/>
<path d="M2462 6108 c3 -21 14 -24 126 -43 68 -11 124 -24 125 -30 1 -5 -56
-21 -126 -34 -120 -22 -127 -24 -127 -47 0 -27 -4 -25 149 -54 57 -11 107 -22
110 -25 12 -12 -23 -22 -126 -34 -60 -8 -114 -16 -120 -18 -17 -7 -17 -53 0
-52 6 0 86 15 177 32 163 32 165 33 168 59 4 31 10 28 -141 57 -147 29 -146
33 19 64 l119 23 0 29 0 29 -160 33 c-196 39 -197 39 -193 11z"/>
<path d="M5925 6075 c-22 -21 -25 -33 -25 -98 0 -59 3 -76 16 -81 9 -3 80 -6
159 -6 79 0 150 3 159 6 35 13 13 24 -50 24 -86 0 -104 10 -104 59 0 63 25 84
104 89 47 3 66 8 66 18 0 19 -97 18 -130 -1 -14 -8 -30 -17 -37 -21 -7 -3 -24
4 -39 15 -37 29 -88 28 -119 -4z m115 -25 c15 -15 20 -33 20 -69 0 -54 -9 -61
-81 -61 -55 0 -73 19 -66 69 3 24 13 51 23 62 23 25 78 25 104 -1z"/>
<path d="M8996 5999 c-37 -10 -63 -34 -94 -89 -14 -25 -32 -51 -40 -57 -20
-16 -64 -17 -80 -1 -17 17 -15 55 3 70 38 32 46 41 42 52 -7 22 -46 18 -72 -8
-20 -20 -25 -35 -25 -73 0 -60 19 -89 69 -104 57 -17 107 10 143 76 45 84 96
107 138 65 35 -35 27 -57 -35 -108 -21 -18 -15 -36 13 -40 14 -2 33 8 52 27
24 24 30 38 30 73 0 55 -30 105 -67 114 -15 3 -32 7 -38 8 -5 2 -23 -1 -39 -5z"/>
<path d="M9340 5930 l0 -50 73 0 c43 0 78 -5 85 -12 9 -9 12 -96 12 -330 l0
-318 60 0 60 0 0 324 c0 286 2 325 16 330 9 3 47 6 85 6 l70 0 -3 48 -3 47
-227 3 -228 2 0 -50z"/>
<path d="M9905 5968 c-3 -7 -4 -177 -3 -378 l3 -365 58 -3 57 -3 0 150 c0 82
3 156 6 165 4 12 20 16 54 16 113 0 132 -27 139 -199 l6 -126 59 -3 59 -3 -5
134 c-6 140 -21 196 -60 220 -25 16 -23 25 16 63 86 84 66 256 -38 315 -37 22
-55 24 -193 27 -121 3 -154 1 -158 -10z m282 -103 c51 -34 52 -148 1 -190 -25
-21 -40 -25 -93 -25 -75 0 -75 -1 -75 120 0 113 9 125 89 116 31 -4 66 -13 78
-21z"/>
<path d="M10480 5683 c0 -187 4 -313 11 -338 27 -97 90 -138 214 -139 111 -1
168 27 207 103 l28 53 0 309 0 309 -60 0 -59 0 -3 -304 c-3 -290 -4 -306 -24
-332 -27 -37 -67 -49 -114 -35 -73 22 -75 28 -78 369 l-3 302 -60 0 -59 0 0
-297z"/>
<path d="M11047 5973 c-4 -3 -7 -26 -7 -50 l0 -43 69 0 c38 0 76 -3 85 -6 14
-5 16 -44 16 -330 l0 -324 60 0 60 0 0 318 c0 234 3 321 12 330 7 7 42 12 85
12 l73 0 0 50 0 50 -223 0 c-123 0 -227 -3 -230 -7z"/>
<path d="M11610 5600 l0 -380 60 0 60 0 0 169 c0 145 2 170 16 175 29 11 169
7 182 -6 8 -8 12 -62 12 -175 l0 -163 60 0 60 0 0 380 0 380 -60 0 -60 0 0
-144 c0 -111 -3 -146 -14 -155 -9 -8 -46 -11 -103 -9 l-88 3 -3 153 -3 152
-59 0 -60 0 0 -380z"/>
<path d="M4744 5939 c-14 -16 -19 -36 -19 -82 l0 -62 153 -3 c147 -2 152 -2
152 18 0 18 -6 20 -64 20 -70 0 -83 11 -66 54 10 28 28 36 86 36 37 0 44 3 44
20 0 17 -7 20 -45 20 -26 0 -59 -7 -76 -15 -27 -14 -32 -14 -51 0 -33 22 -91
19 -114 -6z m104 -31 c7 -7 12 -27 12 -45 0 -33 0 -33 -49 -33 -41 0 -51 3
-56 20 -10 31 20 70 53 70 16 0 33 -5 40 -12z"/>
<path d="M1910 5845 l0 -25 185 0 185 0 0 25 0 25 -185 0 -185 0 0 -25z"/>
<path d="M5260 5815 c0 -13 27 -15 213 -13 283 4 282 22 -3 26 -184 2 -210 0
-210 -13z"/>
<path d="M6499 5803 c-39 -24 -60 -67 -61 -123 0 -72 24 -105 112 -155 87 -50
114 -81 113 -131 -1 -48 -27 -74 -73 -74 -37 0 -70 24 -83 63 -5 12 -17 17
-47 17 -46 0 -48 -6 -21 -67 25 -54 68 -77 146 -78 112 0 169 59 162 168 -4
75 -25 101 -118 154 -84 49 -109 74 -109 112 0 88 109 98 134 14 6 -18 15 -23
42 -23 20 0 37 6 40 14 9 24 -24 85 -58 106 -42 25 -141 27 -179 3z"/>
<path d="M6913 5800 c-17 -12 -42 -42 -55 -68 -21 -43 -23 -61 -23 -192 0
-135 2 -148 25 -194 35 -69 67 -91 138 -91 102 1 150 50 173 179 13 75 7 207
-11 269 -6 22 -26 55 -45 75 -31 34 -37 36 -101 40 -57 2 -75 -1 -101 -18z
m144 -75 c27 -31 37 -105 31 -235 -5 -107 -19 -142 -64 -162 -35 -16 -71 4
-91 50 -24 53 -24 272 -1 325 27 60 81 70 125 22z"/>
<path d="M7353 5800 c-45 -27 -72 -87 -85 -186 -14 -99 1 -237 29 -288 21 -35
93 -76 135 -76 76 0 144 55 155 125 6 35 5 35 -31 35 -31 0 -37 -4 -50 -34
-24 -58 -77 -73 -114 -33 -31 33 -45 115 -40 231 5 113 23 161 64 177 37 13
77 -8 89 -48 8 -30 13 -33 47 -33 35 0 38 2 38 29 0 34 -37 91 -70 108 -39 20
-130 16 -167 -7z"/>
<path d="M7685 5808 c-3 -7 -4 -132 -3 -278 l3 -265 38 -3 37 -3 -2 278 -3
278 -33 3 c-20 2 -34 -2 -37 -10z"/>
<path d="M7973 5808 c-8 -10 -122 -492 -127 -533 -1 -5 17 -10 39 -10 l40 0
13 65 c7 35 18 68 25 72 21 14 115 9 130 -7 8 -7 18 -36 22 -62 9 -61 19 -73
61 -73 27 0 34 4 34 19 0 24 -116 516 -125 530 -9 15 -100 14 -112 -1z m73
-125 c3 -21 12 -69 20 -106 20 -100 21 -97 -35 -97 -28 0 -52 4 -55 8 -4 7 28
190 39 220 9 24 24 11 31 -25z"/>
<path d="M8295 5808 c-3 -7 -4 -132 -3 -278 l3 -265 130 0 130 0 3 33 3 32
-84 0 c-58 0 -88 4 -96 13 -7 9 -12 94 -13 243 l-3 229 -33 3 c-20 2 -34 -2
-37 -10z"/>
<path d="M6004 5801 c-81 -14 -121 -61 -110 -130 11 -70 67 -101 183 -101 133
1 194 47 180 136 -7 44 -23 63 -62 80 -40 16 -139 24 -191 15z m210 -60 c48
-45 26 -112 -42 -131 -20 -5 -64 -10 -97 -10 -112 0 -165 29 -165 90 0 26 29
61 60 73 8 4 61 5 117 4 92 -2 104 -4 127 -26z"/>
<path d="M1973 5733 c-45 -8 -63 -48 -63 -140 l0 -83 183 2 182 3 0 25 c0 24
-2 25 -77 28 -86 3 -101 17 -76 69 15 30 41 41 111 42 43 1 47 3 47 26 0 24
-2 25 -62 25 -43 0 -72 -6 -93 -18 -29 -18 -31 -18 -55 -1 -28 19 -65 28 -97
22z m79 -70 c11 -10 18 -30 18 -55 l0 -38 -59 0 c-49 0 -61 3 -66 19 -6 21 11
72 28 83 20 13 60 9 79 -9z"/>
<path d="M9088 5653 l-3 -68 -67 -3 -67 -3 -3 63 c-3 55 -5 63 -23 63 -17 0
-21 -8 -25 -60 l-5 -60 -57 -3 -58 -3 0 66 c0 63 -1 65 -25 65 l-26 0 3 -92 3
-93 198 -3 198 -2 -3 97 c-3 83 -6 98 -20 101 -14 3 -18 -7 -20 -65z"/>
<path d="M4624 5565 c-89 -44 -127 -122 -147 -292 -8 -78 -8 -131 0 -218 13
-128 35 -191 86 -243 80 -82 246 -80 329 5 37 38 68 105 68 149 0 23 -4 24
-60 24 l-59 0 -11 -37 c-12 -45 -27 -65 -57 -81 -56 -30 -110 0 -140 76 -15
39 -18 77 -18 232 0 170 2 189 22 233 47 102 164 93 193 -15 l11 -38 59 0 60
0 0 33 c0 54 -43 132 -91 164 -35 23 -55 29 -118 31 -66 3 -83 0 -127 -23z"/>
<path d="M5179 5563 c-75 -39 -104 -91 -103 -188 1 -111 32 -152 174 -230 103
-57 137 -87 152 -136 25 -84 -19 -154 -97 -154 -56 0 -94 28 -113 83 l-14 42
-65 0 -65 0 7 -37 c25 -139 141 -211 294 -185 124 21 183 89 189 219 7 127
-36 183 -205 273 -101 53 -128 84 -128 145 0 60 33 95 90 95 52 0 72 -15 89
-65 l14 -40 61 -3 61 -3 0 31 c0 67 -55 142 -122 167 -18 6 -63 12 -99 12 -53
1 -76 -4 -120 -26z"/>
<path d="M2475 5558 c-3 -13 -4 -194 -3 -403 l3 -380 203 -3 c222 -3 210 -6
215 63 l2 40 -145 5 -145 5 -3 114 c-2 75 1 118 9 127 9 11 42 14 135 14 l124
0 0 55 0 54 -132 3 -133 3 -3 94 c-2 60 1 98 9 107 9 11 42 14 140 14 l129 0
0 55 0 55 -200 0 c-199 0 -200 0 -205 -22z"/>
<path d="M2970 5525 l0 -54 88 -3 87 -3 3 -347 2 -348 65 0 65 0 2 348 3 347
88 3 87 3 0 54 0 55 -245 0 -245 0 0 -55z"/>
<path d="M3560 5175 l0 -405 65 0 65 0 2 183 3 182 105 0 105 0 3 -182 2 -183
65 0 65 0 0 405 0 405 -65 0 -65 0 0 -154 c0 -119 -3 -156 -14 -165 -9 -8 -47
-11 -107 -9 l-94 3 -3 163 -2 162 -65 0 -65 0 0 -405z"/>
<path d="M4205 5567 c-3 -6 -4 -188 -3 -402 l3 -390 63 -3 62 -3 0 406 0 405
-60 0 c-39 0 -62 -4 -65 -13z"/>
<path d="M5902 5413 l-2 -93 175 0 175 0 -2 93 c-1 57 -3 71 -5 37 -6 -103 -3
-100 -87 -100 -85 0 -85 0 -88 88 l-2 57 -3 -50 c-6 -96 -5 -95 -78 -95 -73 0
-72 -2 -78 100 -2 34 -4 20 -5 -37z"/>
<path d="M8795 5441 c-48 -21 -60 -48 -60 -135 l0 -81 195 0 195 0 3 28 3 27
-84 0 c-93 0 -102 6 -88 57 10 37 43 53 114 53 55 0 57 1 57 26 l0 26 -79 -3
c-58 -3 -84 -9 -98 -22 -19 -17 -21 -16 -46 3 -30 24 -83 34 -112 21z m99 -70
c11 -12 16 -31 14 -53 -3 -33 -3 -33 -62 -36 -41 -2 -62 1 -68 10 -11 18 1 70
20 86 24 18 76 15 96 -7z"/>
<path d="M1939 5411 c-27 -28 -29 -34 -29 -110 l0 -81 185 0 185 0 0 25 c0 24
-2 25 -69 25 -43 0 -72 5 -78 13 -6 6 -13 34 -16 62 -7 65 -39 95 -103 95 -37
0 -51 -6 -75 -29z m129 -48 c18 -24 15 -80 -4 -87 -30 -12 -93 -6 -108 10 -15
14 -14 50 1 77 17 29 88 29 111 0z"/>
<path d="M5902 5198 c3 -8 30 -14 74 -16 39 -2 72 -8 76 -15 4 -7 8 -35 8 -64
0 -71 -14 -83 -97 -83 -47 0 -64 -3 -61 -12 4 -10 50 -14 176 -16 149 -2 172
0 172 13 0 12 -14 15 -71 15 -97 0 -109 8 -109 75 0 85 0 85 96 85 68 0 84 3
84 15 0 13 -26 15 -176 15 -136 0 -175 -3 -172 -12z"/>
<path d="M6472 5095 c-67 -56 -70 -254 -4 -305 44 -35 149 -19 166 25 20 52
-12 60 -54 15 -33 -35 -40 -36 -71 -11 -22 17 -24 28 -27 113 -3 111 8 141 55
146 25 3 35 -2 49 -22 20 -32 54 -35 54 -6 0 65 -110 94 -168 45z"/>
<path d="M6769 5105 c-36 -19 -59 -82 -59 -158 0 -122 35 -177 112 -177 91 0
123 47 123 180 0 94 -18 139 -62 159 -33 15 -83 13 -114 -4z m108 -55 c15 -29
17 -168 3 -204 -14 -38 -46 -51 -76 -32 -30 20 -39 53 -39 141 0 91 21 128 68
123 22 -2 35 -11 44 -28z"/>
<path d="M7034 5107 c-2 -7 -3 -85 -2 -172 3 -143 5 -160 21 -163 15 -3 17 7
17 110 0 62 4 119 9 127 11 17 22 -4 71 -129 40 -102 45 -110 76 -110 l24 0
-2 173 c-3 145 -5 172 -18 172 -12 0 -16 -21 -18 -113 -2 -84 -6 -112 -15
-109 -6 2 -31 48 -53 103 -23 54 -47 105 -53 112 -15 16 -50 16 -57 -1z"/>
<path d="M7325 5111 c-6 -11 73 -310 88 -328 14 -19 55 -16 66 5 22 42 90 317
81 326 -25 25 -45 -12 -74 -137 -16 -71 -34 -127 -41 -127 -6 0 -23 55 -39
128 -16 70 -33 130 -40 134 -15 11 -34 10 -41 -1z"/>
<path d="M7647 5114 c-4 -4 -7 -83 -7 -176 l0 -168 84 0 c62 0 87 4 96 15 16
19 4 23 -70 27 l-55 3 -3 57 -3 57 58 3 c45 2 59 7 61 20 3 14 -6 17 -55 20
l-58 3 0 50 0 50 63 3 c53 3 63 6 60 20 -3 14 -17 18 -84 20 -44 1 -83 0 -87
-4z"/>
<path d="M7904 5107 c-2 -7 -3 -85 -2 -172 3 -134 5 -160 18 -160 12 0 16 22
20 120 3 71 9 119 15 119 6 -1 30 -52 55 -114 46 -114 64 -138 94 -127 15 6
16 26 14 174 -3 141 -5 168 -18 168 -12 0 -16 -21 -18 -113 -2 -84 -6 -112
-15 -109 -7 2 -31 48 -54 103 -23 54 -46 105 -53 112 -14 16 -49 16 -56 -1z"/>
<path d="M8197 5114 c-16 -17 -6 -34 21 -34 49 0 51 -6 54 -160 3 -137 4 -145
23 -145 19 0 20 8 23 139 1 82 7 145 14 153 6 7 26 13 45 13 27 0 34 4 31 18
-3 15 -17 17 -104 20 -55 1 -103 0 -107 -4z"/>
<path d="M8475 5108 c-3 -8 -4 -86 -3 -173 3 -158 3 -160 26 -163 l22 -3 -2
173 c-3 155 -5 173 -21 176 -9 2 -19 -3 -22 -10z"/>
<path d="M8661 5104 c-35 -25 -51 -75 -51 -159 0 -124 34 -175 117 -175 66 0
101 37 113 117 14 104 -5 184 -52 217 -29 21 -97 20 -127 0z m115 -59 c7 -19
14 -64 14 -100 0 -118 -41 -169 -98 -120 -26 22 -27 27 -27 118 0 108 14 137
67 137 24 0 32 -6 44 -35z"/>
<path d="M8937 5113 c-4 -3 -7 -82 -7 -175 0 -156 1 -169 18 -166 15 3 18 19
22 123 3 71 9 120 15 119 6 -1 30 -52 55 -114 45 -114 63 -138 94 -127 15 6
16 26 14 174 -3 141 -5 168 -18 168 -12 0 -16 -21 -20 -112 -3 -61 -8 -115
-12 -119 -7 -7 -26 32 -76 156 -14 36 -30 68 -36 72 -14 10 -41 10 -49 1z"/>
<path d="M9306 5112 c-2 -4 -23 -79 -46 -166 -42 -158 -43 -187 -6 -173 8 3
18 19 22 34 11 54 11 54 66 51 52 -3 53 -4 63 -42 12 -41 25 -52 50 -43 11 5
6 36 -27 164 -22 87 -45 164 -50 171 -11 13 -64 17 -72 4z m64 -134 c13 -64 9
-78 -23 -78 -43 0 -49 12 -36 71 23 109 37 111 59 7z"/>
<path d="M9535 5108 c-3 -8 -4 -86 -3 -173 l3 -160 84 -3 c59 -2 87 1 92 10
13 21 0 28 -55 28 -32 0 -58 5 -64 13 -7 8 -13 71 -14 153 -3 123 -5 139 -21
142 -9 2 -19 -3 -22 -10z"/>
<path d="M9785 5108 c-3 -8 -4 -86 -3 -173 3 -152 4 -160 23 -160 19 0 20 7
20 170 0 154 -2 170 -18 173 -9 2 -19 -3 -22 -10z"/>
<path d="M9907 5114 c-18 -18 -5 -33 31 -36 l37 -3 5 -150 c5 -146 6 -150 28
-153 22 -3 22 -3 22 140 0 159 3 168 58 168 26 0 33 4 30 18 -3 15 -17 17
-104 20 -55 1 -103 0 -107 -4z"/>
<path d="M10184 5107 c-2 -7 -3 -85 -2 -172 3 -147 4 -160 22 -163 10 -2 22 2
27 10 14 21 11 312 -3 326 -16 16 -37 15 -44 -1z"/>
<path d="M10335 5108 c-3 -8 -4 -86 -3 -173 l3 -160 90 0 c77 0 90 2 93 17 3
14 -7 18 -65 20 l-68 3 0 55 0 55 60 5 c47 4 61 9 63 23 3 14 -4 17 -50 17
-64 0 -78 11 -78 61 0 43 10 49 82 49 42 0 49 3 46 18 -3 14 -16 17 -86 20
-61 2 -84 -1 -87 -10z"/>
<path d="M10635 5108 c-32 -17 -45 -39 -45 -75 0 -41 28 -71 99 -107 59 -30
73 -61 47 -101 -23 -35 -60 -33 -96 6 -18 20 -34 30 -44 26 -23 -9 -20 -25 13
-58 24 -24 38 -29 76 -29 76 0 114 30 115 90 0 49 -20 74 -90 111 -70 37 -86
68 -52 101 25 25 67 18 77 -12 4 -13 15 -20 31 -20 31 0 31 24 -1 55 -27 27
-92 34 -130 13z"/>
<path d="M330 4915 c0 -144 1 -156 18 -153 14 3 18 17 22 73 l5 70 35 3 c46 5
60 -17 60 -91 0 -50 2 -58 18 -55 15 3 17 18 17 153 0 135 -2 150 -17 153 -15
3 -18 -4 -18 -45 0 -64 -16 -86 -60 -81 -35 3 -35 3 -40 63 -4 47 -9 61 -22
63 -17 3 -18 -9 -18 -153z"/>
<path d="M560 5061 c0 -5 16 -46 35 -91 25 -58 35 -97 35 -133 0 -59 11 -83
34 -74 12 5 16 20 16 64 0 44 9 79 35 142 40 94 42 104 18 99 -12 -2 -26 -25
-39 -63 -13 -36 -28 -61 -38 -63 -9 -2 -16 1 -16 7 0 6 -9 35 -21 66 -15 40
-25 55 -40 55 -10 0 -19 -4 -19 -9z"/>
<path d="M800 4915 c0 -147 1 -155 20 -155 16 0 19 8 22 61 l3 62 48 12 c64
16 80 34 80 86 0 62 -34 89 -114 89 l-59 0 0 -155z m111 115 c29 -16 26 -75
-6 -96 -14 -9 -32 -13 -45 -9 -16 5 -20 15 -20 54 0 26 3 51 7 54 10 10 42 8
64 -3z"/>
<path d="M1060 5045 c-22 -23 -25 -37 -28 -115 -6 -135 21 -177 108 -168 57 5
75 42 75 153 0 118 -17 148 -86 153 -37 2 -49 -1 -69 -23z m106 -40 c18 -44
18 -136 -1 -181 -12 -30 -19 -35 -42 -32 -41 5 -54 39 -51 134 3 88 15 114 55
114 18 0 28 -9 39 -35z"/>
<path d="M1327 5059 c-29 -17 -47 -72 -47 -147 0 -119 22 -152 99 -152 31 0
44 6 60 26 12 15 21 33 21 40 0 23 -26 16 -44 -11 -10 -16 -26 -25 -42 -25
-33 0 -54 49 -54 125 0 76 21 125 54 125 16 0 32 -9 42 -25 9 -14 23 -25 30
-25 21 0 17 33 -6 58 -23 24 -81 30 -113 11z"/>
<path d="M1520 4915 c0 -147 1 -155 20 -155 17 0 19 8 22 68 3 63 4 67 28 70
41 4 54 -12 60 -75 4 -45 9 -59 23 -61 15 -3 17 5 17 55 -1 33 -6 66 -15 76
-12 16 -11 23 7 53 16 28 19 41 11 67 -11 41 -44 57 -115 57 l-58 0 0 -155z
m125 101 c30 -45 -19 -102 -70 -82 -15 6 -22 86 -8 99 16 16 63 6 78 -17z"/>
<path d="M1760 4915 c0 -148 1 -155 20 -155 19 0 20 7 20 155 0 148 -1 155
-20 155 -19 0 -20 -7 -20 -155z"/>
<path d="M1890 5050 c-23 -23 -27 -78 -7 -102 6 -9 32 -28 57 -43 25 -16 48
-33 52 -39 26 -39 -20 -98 -60 -77 -11 6 -22 17 -26 26 -6 16 -46 21 -46 6 0
-4 9 -20 21 -35 17 -22 29 -26 68 -26 58 0 91 29 91 79 0 45 -15 68 -59 91
-70 35 -89 71 -55 104 21 22 31 20 58 -9 28 -30 46 -32 46 -7 0 50 -100 72
-140 32z"/>
<path d="M2080 5059 c0 -5 14 -42 31 -82 21 -47 34 -96 38 -142 5 -53 10 -71
22 -73 13 -2 17 9 22 60 3 40 18 93 41 148 20 46 36 88 36 92 0 4 -9 8 -19 8
-15 0 -24 -15 -41 -65 -12 -36 -27 -65 -34 -65 -7 0 -23 29 -35 65 -18 49 -28
65 -42 65 -10 0 -19 -5 -19 -11z"/>
<path d="M5903 4815 c0 -60 1 -99 4 -85 12 77 -5 70 178 70 140 0 165 2 165
15 0 13 -24 15 -159 15 -174 0 -176 1 -184 60 -2 19 -4 -14 -4 -75z"/>
<path d="M5287 4590 c-84 -21 -131 -63 -172 -151 -38 -85 -48 -156 -42 -329 5
-183 25 -261 83 -328 54 -64 104 -86 194 -86 88 -1 139 15 186 57 73 63 103
159 111 347 11 268 -44 422 -170 475 -47 20 -141 27 -190 15z m149 -141 c45
-42 59 -115 59 -304 0 -104 -5 -186 -13 -211 -18 -62 -53 -107 -90 -118 -69
-20 -126 23 -154 118 -18 58 -17 377 0 435 8 25 29 60 48 79 32 32 38 34 80
29 28 -3 55 -13 70 -28z"/>
<path d="M7893 4590 c-88 -19 -152 -76 -172 -156 -37 -145 19 -238 194 -324
109 -54 151 -90 165 -142 29 -107 -47 -190 -148 -160 -46 14 -69 38 -87 89
l-13 38 -71 3 c-69 3 -71 2 -71 -21 0 -78 60 -164 140 -200 65 -30 197 -29
265 2 102 45 140 107 140 226 0 136 -38 182 -229 282 -128 67 -149 92 -143
166 5 61 30 88 89 94 37 4 49 1 75 -21 18 -15 35 -41 40 -64 l9 -37 69 0 70 0
-2 37 c-3 44 -31 104 -65 135 -51 48 -166 72 -255 53z"/>
<path d="M9063 4580 c-12 -5 -29 -24 -39 -42 -9 -18 -23 -41 -32 -50 -18 -21
-62 -24 -82 -5 -12 10 -12 9 0 -6 9 -13 24 -17 49 -15 28 2 40 10 58 38 36 58
51 70 86 70 18 0 37 -3 43 -7 5 -5 1 0 -9 10 -21 19 -40 21 -74 7z"/>
<path d="M4210 4145 l0 -435 66 0 66 0 -2 363 c-2 417 -3 398 10 376 8 -13
130 -701 130 -731 0 -5 31 -8 69 -8 l68 0 12 58 c6 31 36 188 66 347 66 347
63 335 75 335 6 0 10 -135 10 -370 l0 -370 70 0 70 0 0 435 0 435 -115 0
c-111 0 -115 -1 -120 -22 -3 -13 -30 -146 -60 -297 -31 -151 -58 -277 -60
-280 -12 -11 -23 19 -34 94 -13 84 -77 444 -86 483 -5 21 -9 22 -120 22 l-115
0 0 -435z"/>
<path d="M5800 4145 l0 -436 73 3 72 3 5 185 5 185 57 3 c124 7 158 -35 159
-195 0 -54 3 -116 7 -138 l7 -40 69 0 68 0 -1 125 c-3 166 -13 212 -63 266
l-39 42 35 27 c51 38 76 98 76 176 0 78 -23 132 -73 176 -52 46 -91 53 -284
53 l-173 0 0 -435z m346 291 c31 -31 34 -40 34 -90 0 -106 -38 -141 -154 -141
l-71 0 -3 133 -3 132 82 0 c79 0 82 -1 115 -34z"/>
<path d="M6621 4543 c-6 -21 -51 -209 -101 -418 -50 -209 -93 -388 -96 -397
-5 -16 3 -18 69 -18 l74 0 18 88 c30 145 17 133 147 130 l113 -3 17 -85 c10
-47 20 -95 23 -107 5 -21 11 -23 80 -23 54 0 75 4 75 13 0 6 -47 201 -103 432
l-103 420 -101 3 -102 3 -10 -38z m127 -150 c55 -261 65 -325 51 -334 -20 -12
-133 -11 -146 2 -7 7 0 62 24 182 19 95 36 178 38 185 9 26 24 10 33 -35z"/>
<path d="M7150 4145 l0 -435 224 0 224 0 7 50 c4 27 4 54 0 60 -4 6 -62 10
-155 10 l-150 0 -2 373 -3 372 -72 3 -73 3 0 -436z"/>
<path d="M8909 4563 c-13 -15 -12 -15 9 -4 23 12 28 21 13 21 -5 0 -15 -7 -22
-17z"/>
<path d="M1535 4560 c-10 -16 -75 -241 -75 -259 0 -23 16 -1 30 42 l12 38 51
-3 c51 -3 52 -4 67 -45 14 -41 30 -57 30 -30 0 6 -18 68 -39 137 -25 85 -43
126 -53 128 -9 2 -19 -2 -23 -8z m47 -88 c19 -70 11 -86 -39 -80 -24 3 -28 7
-27 33 3 50 24 117 37 112 7 -2 19 -31 29 -65z"/>
<path d="M1714 4557 c-3 -9 -5 -67 -2 -127 4 -132 12 -145 88 -145 77 0 92 21
98 138 5 103 -3 161 -19 136 -5 -7 -9 -64 -9 -126 0 -104 -2 -113 -22 -127
-12 -9 -32 -16 -43 -16 -11 0 -31 7 -43 16 -20 14 -22 23 -22 127 0 110 -11
162 -26 124z"/>
<path d="M1990 4561 l35 -6 3 -120 c1 -66 5 -126 7 -134 12 -33 20 9 25 127
l5 127 30 6 c17 4 -6 7 -55 7 -53 -1 -72 -3 -50 -7z"/>
<path d="M2195 4549 c-3 -13 -4 -75 -3 -137 3 -123 20 -152 28 -50 l5 63 60 0
60 0 3 -67 c2 -38 7 -68 12 -68 6 0 10 59 10 142 0 89 -4 138 -9 133 -6 -6
-11 -35 -13 -65 l-3 -55 -60 0 -60 0 -3 55 c-3 61 -17 87 -27 49z"/>
<path d="M2468 4503 c-2 -38 -2 -101 0 -140 5 -71 5 -73 31 -72 18 1 20 3 8 6
-15 4 -17 14 -15 66 l3 62 55 6 55 5 -55 5 -55 4 0 55 0 55 55 6 55 6 -66 1
-67 2 -4 -67z"/>
<path d="M2689 4558 c-2 -29 -1 -79 2 -173 l3 -100 5 114 c4 68 10 116 17 118
6 2 35 -48 65 -111 38 -82 59 -116 72 -116 15 0 17 13 17 141 0 91 -4 138 -10
134 -6 -4 -10 -53 -10 -116 0 -70 -4 -109 -11 -109 -5 0 -35 52 -65 115 -32
66 -62 115 -70 115 -8 0 -14 -6 -15 -12z"/>
<path d="M2960 4563 c47 -9 50 -18 50 -149 0 -170 19 -162 22 9 l3 132 35 6
c22 4 3 6 -50 6 -47 0 -74 -2 -60 -4z"/>
<path d="M3170 4431 c0 -87 4 -141 10 -141 6 0 10 51 10 134 0 79 -4 137 -10
141 -6 4 -10 -43 -10 -134z"/>
<path d="M3303 4546 c-26 -23 -28 -30 -31 -108 -3 -94 8 -126 52 -147 36 -17
100 0 117 30 18 34 2 34 -30 0 -35 -37 -60 -39 -91 -6 -41 43 -40 185 1 226
27 27 65 24 95 -8 31 -33 41 -25 13 10 -28 36 -86 37 -126 3z"/>
<path d="M3527 4563 c-11 -11 -8 -273 3 -273 6 0 10 53 10 140 0 77 -1 140 -3
140 -2 0 -7 -3 -10 -7z"/>
<path d="M3630 4563 c47 -9 50 -18 50 -149 0 -76 4 -124 10 -124 6 0 10 50 10
130 l0 130 28 6 c51 11 47 12 -38 12 -47 0 -74 -3 -60 -5z"/>
<path d="M3840 4560 c0 -6 18 -46 40 -90 31 -61 40 -91 40 -130 0 -27 5 -50
10 -50 6 0 10 25 10 56 0 47 7 69 41 130 22 41 39 80 36 87 -2 6 -20 -21 -41
-60 -20 -40 -41 -73 -46 -73 -5 0 -26 32 -45 70 -34 67 -45 82 -45 60z"/>
<path d="M10870 4552 c-53 -29 -74 -81 -78 -188 -4 -107 9 -163 47 -206 26
-30 35 -33 102 -36 56 -4 82 -10 109 -28 35 -24 35 -24 54 -4 22 22 23 21 -38
62 -6 4 -3 28 8 63 25 78 19 235 -10 285 -37 65 -125 88 -194 52z m115 -56
c29 -29 40 -93 32 -194 -7 -86 -28 -125 -71 -130 -55 -7 -86 58 -86 180 0 80
15 133 43 153 30 21 54 19 82 -9z"/>
<path d="M9750 4487 c0 -59 -3 -76 -16 -81 -22 -8 -97 -7 -111 2 -7 4 -13 36
-15 72 -3 59 -5 65 -25 68 -22 3 -23 0 -23 -60 0 -74 -10 -88 -61 -88 -54 0
-69 20 -69 91 0 57 -1 60 -22 57 -22 -3 -23 -7 -23 -103 l0 -100 205 0 205 0
0 105 c0 101 -1 105 -22 108 -22 3 -23 0 -23 -71z"/>
<path d="M9980 4345 l0 -215 120 0 120 0 0 25 c0 24 -2 24 -82 27 l-83 3 0 70
0 70 78 3 c74 3 77 4 77 27 0 23 -3 24 -77 27 l-78 3 0 60 0 60 80 5 c72 4 80
7 80 25 0 19 -8 20 -117 23 l-118 3 0 -216z"/>
<path d="M10280 4536 c0 -23 5 -25 48 -28 l47 -3 3 -187 2 -188 35 0 35 0 0
174 c0 96 3 181 6 190 4 12 20 16 55 16 46 0 49 2 49 25 l0 25 -140 0 -140 0
0 -24z"/>
<path d="M10630 4345 l0 -215 35 0 35 0 0 215 0 215 -35 0 -35 0 0 -215z"/>
<path d="M11180 4376 l0 -186 29 -32 c24 -28 36 -32 90 -36 70 -5 112 9 141
46 18 22 20 41 20 209 l0 184 -32 -3 -33 -3 -5 -178 c-5 -162 -7 -180 -24
-193 -11 -8 -32 -14 -46 -14 -14 0 -35 6 -46 14 -17 13 -19 31 -24 193 l-5
178 -32 3 -33 3 0 -185z"/>
<path d="M11560 4345 l0 -215 120 0 c72 0 121 4 122 10 5 34 1 35 -82 40 l-85
5 -3 58 c-4 79 5 87 89 87 67 0 69 1 69 25 0 24 -2 25 -74 25 -81 0 -86 4 -86
65 0 62 4 65 91 65 78 0 79 0 79 25 l0 25 -120 0 -120 0 0 -215z"/>
<path d="M11860 4535 c0 -23 4 -25 43 -25 24 0 48 -5 55 -12 8 -8 12 -65 12
-190 l0 -178 35 0 35 0 2 188 3 187 48 3 c42 3 47 5 47 28 l0 24 -140 0 -140
0 0 -25z"/>
<path d="M12190 4535 c0 -23 3 -25 49 -25 35 0 51 -4 55 -16 3 -9 6 -94 6
-190 l0 -174 35 0 35 0 2 188 3 187 48 3 c42 3 47 5 47 28 l0 24 -140 0 -140
0 0 -25z"/>
<path d="M12540 4345 l0 -215 120 0 c72 0 121 4 122 10 5 34 1 35 -82 40 l-85
5 -3 58 c-4 79 5 87 89 87 67 0 69 1 69 25 0 23 -3 24 -77 27 l-78 3 0 60 0
60 83 3 c80 3 82 3 82 27 l0 25 -120 0 -120 0 0 -215z"/>
<path d="M8460 4530 c0 -13 19 -15 122 -12 168 4 173 20 9 24 -111 3 -131 1
-131 -12z"/>
<path d="M9130 4470 c-14 -11 -20 -20 -14 -20 14 0 50 27 44 33 -3 3 -16 -3
-30 -13z"/>
<path d="M8608 4403 c-8 -10 -24 -34 -36 -54 -26 -43 -57 -54 -89 -33 -13 8
-23 10 -23 4 0 -17 46 -33 74 -26 16 4 35 23 52 51 38 65 78 82 116 48 10 -9
18 -11 18 -5 0 32 -87 43 -112 15z"/>
<path d="M8470 4400 c-8 -5 -12 -11 -10 -14 3 -2 14 2 24 10 22 15 10 19 -14
4z"/>
<path d="M8694 4305 c-10 -8 -14 -15 -8 -15 6 0 17 7 24 15 16 19 9 19 -16 0z"/>
<path d="M8892 4298 c3 -9 42 -14 136 -16 120 -2 132 -1 132 15 0 13 -3 14
-12 5 -16 -16 -100 -16 -116 0 -9 9 -15 9 -24 0 -15 -15 -84 -16 -93 -2 -9 14
-27 12 -23 -2z"/>
<path d="M9413 4235 c-34 -34 -35 -38 -31 -90 8 -98 62 -130 218 -129 108 1
158 17 187 60 21 33 24 100 4 137 -15 28 -75 62 -91 52 -20 -13 -10 -45 20
-60 34 -17 47 -53 31 -84 -15 -27 -70 -41 -166 -41 -103 0 -149 20 -153 68 -3
27 2 35 27 50 23 12 31 24 31 45 0 39 -33 36 -77 -8z"/>
<path d="M8470 4221 c0 -7 36 -11 109 -11 118 0 141 -9 141 -54 0 -46 -27 -56
-150 -56 -83 0 -111 -3 -103 -11 7 -7 49 -10 118 -7 98 3 108 5 126 27 24 30
24 62 0 92 -17 22 -28 24 -130 27 -77 3 -111 1 -111 -7z"/>
<path d="M9150 4140 c0 -6 -46 -10 -119 -10 -69 0 -122 -4 -126 -10 -4 -6 40
-10 124 -10 124 0 131 1 131 20 0 11 -2 20 -5 20 -3 0 -5 -4 -5 -10z"/>
<path d="M1549 4075 c-47 -26 -64 -77 -64 -195 1 -139 23 -184 98 -197 62 -10
127 38 127 92 0 28 -44 17 -62 -15 -21 -36 -56 -40 -84 -9 -16 18 -19 37 -19
136 0 112 1 115 27 138 34 29 63 23 84 -16 8 -17 23 -29 34 -29 31 0 26 46 -9
81 -33 33 -87 39 -132 14z"/>
<path d="M3051 4078 c-45 -24 -65 -73 -69 -173 -7 -158 26 -220 120 -220 43 0
53 4 79 33 36 40 39 72 7 72 -15 0 -29 -11 -40 -30 -27 -47 -77 -40 -97 13
-17 43 -14 203 4 236 20 40 51 46 81 16 13 -13 24 -29 24 -35 0 -5 12 -10 26
-10 25 0 26 2 20 32 -4 18 -15 41 -25 52 -24 23 -98 31 -130 14z"/>
<path d="M1782 3888 l3 -193 25 0 c25 0 25 2 28 88 l3 87 53 0 c64 0 66 -3 66
-106 0 -72 1 -74 25 -74 l25 0 0 195 0 195 -25 0 c-24 0 -25 -2 -25 -69 0 -81
-10 -94 -72 -89 l-43 3 -3 78 -3 77 -30 0 -29 0 2 -192z"/>
<path d="M2160 4075 c0 -2 -18 -82 -40 -176 -47 -203 -48 -212 -17 -207 17 2
24 13 33 48 l11 45 51 3 c56 3 62 -2 76 -70 5 -22 12 -28 31 -28 14 0 25 6 25
13 0 6 -19 94 -42 195 l-41 182 -44 0 c-24 0 -43 -2 -43 -5z m66 -122 c8 -32
14 -70 14 -85 0 -25 -4 -28 -34 -28 -19 0 -37 4 -40 9 -6 9 19 145 30 163 9
15 15 3 30 -59z"/>
<path d="M2394 4067 c-2 -7 -3 -94 -2 -192 l3 -180 28 -3 27 -3 0 85 c0 93 10
107 63 87 35 -14 41 -27 47 -101 5 -61 7 -65 29 -65 24 0 24 2 22 70 -2 42 -9
80 -19 97 -15 25 -15 29 2 47 10 11 21 40 23 65 5 40 2 48 -25 76 -29 28 -35
30 -112 30 -56 0 -82 -4 -86 -13z m150 -43 c21 -20 20 -78 0 -99 -11 -10 -29
-15 -53 -13 -36 3 -36 4 -39 52 -2 27 -1 55 2 62 7 19 71 18 90 -2z"/>
<path d="M2755 4058 c-4 -19 -32 -141 -80 -346 -5 -21 -2 -23 22 -20 23 3 29
10 38 48 l11 45 54 0 55 0 11 -45 c9 -38 15 -45 37 -48 35 -4 35 -6 -16 208
l-42 175 -42 3 c-37 3 -43 0 -48 -20z m73 -122 c16 -81 12 -96 -27 -96 -40 0
-44 10 -31 78 23 117 37 121 58 18z"/>
<path d="M3260 4061 c0 -16 8 -20 38 -23 l37 -3 2 -150 c3 -183 6 -195 38
-195 l25 0 0 169 c0 185 -1 181 61 181 22 0 29 5 29 20 0 19 -7 20 -115 20
-107 0 -115 -1 -115 -19z"/>
<path d="M3550 3885 l0 -196 97 3 c84 3 98 6 101 21 3 15 -5 17 -55 17 -81 0
-95 12 -91 80 l3 55 62 3 c44 2 63 7 67 18 10 27 -3 34 -64 34 -63 0 -70 6
-70 64 0 45 16 56 82 56 51 0 58 2 58 20 0 19 -7 20 -95 20 l-95 0 0 -195z"/>
<path d="M3820 3885 l0 -195 25 0 c25 0 25 1 25 79 0 87 11 106 54 95 39 -9
51 -31 56 -103 5 -62 6 -66 30 -66 25 0 25 1 21 70 -2 39 -10 82 -19 96 -14
25 -14 29 6 54 33 42 30 99 -7 136 -28 27 -34 29 -110 29 l-81 0 0 -195z m144
139 c21 -20 20 -78 0 -99 -11 -10 -29 -15 -53 -13 -36 3 -36 4 -39 52 -2 27
-1 55 2 62 7 19 71 18 90 -2z"/>
<path d="M9000 4030 c58 -4 110 -8 117 -9 6 0 19 -8 27 -17 9 -8 16 -11 16 -6
0 28 -36 37 -149 38 l-116 2 105 -8z"/>
<path d="M8475 4000 c-10 -11 -15 -23 -12 -27 4 -3 7 -2 7 4 0 5 11 15 25 21
32 15 73 0 83 -29 8 -21 9 -21 25 5 15 22 25 26 62 26 24 0 47 5 51 12 9 15
-92 4 -112 -13 -11 -9 -20 -8 -39 5 -33 22 -68 20 -90 -4z"/>
<path d="M9980 3836 c0 -71 4 -116 10 -116 6 0 10 15 10 34 0 52 9 66 41 66
35 0 69 31 69 63 0 41 -23 59 -78 65 l-52 5 0 -117z m88 82 c29 -29 7 -78 -34
-78 -26 0 -39 29 -30 66 7 26 43 33 64 12z"/>
<path d="M10160 3835 l0 -115 55 0 c62 0 75 17 18 22 -37 3 -38 4 -38 43 0 38
2 40 33 43 17 2 32 7 32 12 0 5 -15 10 -32 12 -30 3 -33 6 -33 38 0 33 2 35
38 38 57 5 44 22 -18 22 l-55 0 0 -115z"/>
<path d="M10327 3935 c-9 -21 -9 -178 -1 -199 12 -30 24 -16 24 28 0 47 17 70
44 60 23 -9 36 -36 36 -74 0 -21 4 -30 13 -27 6 2 11 15 10 28 -5 61 -5 106 1
129 11 39 -13 62 -71 67 -41 4 -51 2 -56 -12z m93 -20 c17 -20 5 -62 -21 -70
-36 -12 -60 25 -43 69 8 20 48 21 64 1z"/>
<path d="M10514 3937 c-2 -7 -3 -57 -2 -110 3 -100 20 -138 26 -57 4 50 13 60
57 60 37 0 22 17 -20 22 -25 2 -31 8 -33 32 -4 33 10 46 51 46 15 0 27 5 27
10 0 15 -100 12 -106 -3z"/>
<path d="M10694 3929 c-15 -17 -19 -36 -19 -94 0 -58 4 -77 19 -94 27 -30 81
-28 101 3 34 51 31 150 -6 187 -25 25 -71 24 -95 -2z m83 -29 c16 -31 17 -87
2 -129 -13 -36 -52 -43 -69 -12 -13 26 -13 127 1 152 14 27 50 21 66 -11z"/>
<path d="M10874 3937 c-2 -7 -3 -57 -2 -110 3 -100 21 -138 26 -55 6 90 82 64
82 -28 0 -13 5 -24 10 -24 12 0 13 80 1 99 -6 10 -4 25 5 42 18 35 5 74 -28
82 -39 11 -88 8 -94 -6z m96 -26 c15 -29 13 -39 -14 -56 -33 -22 -56 -10 -56
29 0 18 3 36 7 39 13 14 53 6 63 -12z"/>
<path d="M11067 3943 c-11 -10 -8 -211 3 -218 6 -4 10 17 10 57 0 127 22 139
41 23 16 -104 39 -113 53 -21 11 71 27 117 36 111 6 -4 10 -44 10 -91 0 -49 4
-84 10 -84 6 0 10 45 10 115 0 109 -1 115 -20 115 -23 0 -29 -11 -45 -89 -14
-74 -31 -76 -45 -4 -6 32 -14 66 -16 76 -5 17 -34 23 -47 10z"/>
<path d="M11346 3942 c-15 -24 -54 -208 -46 -216 6 -6 14 2 21 23 10 29 15 32
47 29 29 -2 37 -8 42 -27 6 -26 30 -42 30 -19 0 7 -9 49 -20 93 -11 44 -22 90
-25 103 -5 21 -38 31 -49 14z m38 -94 c1 -37 -2 -43 -19 -43 -17 0 -20 6 -19
37 2 82 36 88 38 6z"/>
<path d="M11490 3836 c0 -131 17 -161 22 -38 2 42 7 77 13 77 5 0 21 -31 36
-68 28 -74 41 -93 58 -83 14 9 15 212 1 221 -6 4 -10 -17 -10 -57 0 -58 -15
-106 -26 -83 -3 6 -17 39 -32 75 -17 39 -34 66 -45 68 -15 3 -17 -8 -17 -112z"/>
<path d="M11716 3937 c-38 -28 -44 -160 -8 -199 20 -24 74 -23 95 0 21 23 21
32 3 32 -8 0 -17 -7 -20 -16 -9 -23 -48 -13 -64 16 -15 29 -10 124 9 146 15
18 48 18 55 -1 6 -16 34 -21 34 -7 0 17 -37 42 -61 42 -14 0 -33 -6 -43 -13z"/>
<path d="M11874 3937 c-2 -7 -3 -58 -2 -113 l3 -99 44 -3 c62 -5 89 10 31 17
-45 6 -45 6 -45 46 0 39 1 40 38 43 20 2 37 7 37 12 0 5 -17 10 -37 12 -34 3
-38 6 -41 32 -4 33 10 46 51 46 15 0 27 5 27 10 0 15 -100 12 -106 -3z"/>
<path d="M9136 3924 c-14 -10 -51 -14 -130 -14 -81 0 -107 -3 -99 -11 8 -8 48
-10 117 -7 83 3 110 7 123 21 22 21 14 30 -11 11z"/>
<path d="M9384 3915 c-12 -30 7 -35 141 -35 78 0 136 -4 140 -10 3 -5 5 -10 3
-10 -20 -1 -275 -111 -282 -122 -5 -8 -6 -27 -2 -42 l6 -26 203 2 202 3 0 25
0 25 -150 5 c-105 3 -145 8 -135 15 8 6 76 33 150 61 l135 51 3 37 3 36 -206
0 c-171 0 -207 -2 -211 -15z"/>
<path d="M8573 3909 c-6 -6 -34 -9 -62 -8 -28 2 -51 1 -51 -3 0 -5 60 -7 133
-6 72 1 105 3 72 5 -32 2 -64 8 -70 13 -7 6 -16 5 -22 -1z"/>
<path d="M8918 3819 c-10 -5 -18 -17 -18 -26 0 -15 2 -14 14 2 15 21 67 25 90
5 9 -7 16 -22 17 -34 0 -19 1 -19 10 4 13 33 26 40 76 40 23 0 45 5 48 10 10
16 -66 12 -99 -5 -26 -14 -31 -14 -52 0 -27 17 -61 19 -86 4z"/>
<path d="M8460 3766 c0 -22 3 -26 13 -18 7 7 66 13 133 15 l119 3 -120 2 c-78
1 -125 6 -133 14 -9 9 -12 6 -12 -16z"/>
<path d="M9016 3724 c-5 -13 -17 -16 -66 -12 -32 2 -57 1 -54 -4 3 -4 65 -7
137 -6 73 1 105 3 72 5 -38 2 -64 9 -71 19 -10 13 -12 13 -18 -2z"/>
<path d="M9750 3527 c0 -59 -3 -76 -16 -81 -22 -8 -97 -7 -111 2 -7 4 -13 36
-15 72 -3 59 -5 65 -25 68 -22 3 -23 0 -23 -60 0 -37 -5 -69 -12 -76 -7 -7
-31 -12 -55 -12 -52 0 -63 16 -63 95 0 53 -1 56 -22 53 -22 -3 -23 -7 -23
-103 l0 -100 205 0 205 0 0 105 c0 101 -1 105 -22 108 -22 3 -23 0 -23 -71z"/>
<path d="M6396 3515 c-52 -18 -90 -57 -117 -119 -19 -42 -23 -74 -27 -181 -9
-267 59 -378 229 -377 167 1 231 98 230 352 0 150 -23 232 -80 283 -61 55
-152 72 -235 42z m149 -99 c13 -13 29 -43 36 -67 16 -57 16 -271 0 -328 -16
-56 -60 -101 -99 -101 -77 0 -113 83 -114 259 -1 186 32 261 114 261 28 0 46
-7 63 -24z"/>
<path d="M7590 3517 c-48 -16 -104 -75 -125 -133 -23 -65 -32 -253 -15 -337
27 -141 97 -209 213 -210 83 -1 129 16 171 63 51 57 69 129 70 275 1 244 -61
345 -219 351 -33 2 -76 -2 -95 -9z m142 -97 c14 -11 31 -40 39 -67 17 -59 18
-281 1 -338 -32 -112 -140 -127 -185 -26 -16 35 -22 74 -25 165 -7 195 27 286
108 286 22 0 47 -8 62 -20z"/>
<path d="M5675 3507 c-3 -7 -4 -156 -3 -332 l3 -320 58 -3 57 -3 0 149 c0 127
2 151 16 156 29 11 160 6 172 -6 8 -8 12 -57 12 -155 l0 -144 58 3 57 3 3 310
c1 171 0 320 -3 333 -5 19 -12 22 -60 22 l-54 0 -3 -132 -3 -133 -95 0 -95 0
-3 133 -3 132 -55 0 c-35 0 -56 -5 -59 -13z"/>
<path d="M6860 3185 l0 -335 50 0 50 0 0 248 c1 196 3 244 13 231 7 -9 52
-120 102 -248 l90 -231 68 0 67 0 -2 333 -3 332 -47 3 -48 3 0 -230 c0 -126
-4 -232 -9 -235 -5 -3 -51 99 -103 227 l-94 232 -67 3 -67 3 0 -336z"/>
<path d="M8050 3186 l0 -336 55 0 55 0 0 129 c0 71 3 136 6 145 8 21 94 22
133 1 38 -19 42 -32 50 -160 l6 -110 55 -3 56 -3 -3 98 c-5 136 -10 159 -43
197 -17 19 -30 37 -30 40 0 4 13 18 29 31 40 34 54 75 49 143 -5 69 -31 111
-85 138 -31 15 -67 19 -185 22 l-148 4 0 -336z m276 223 c31 -29 39 -77 21
-122 -18 -42 -41 -56 -107 -64 -73 -8 -80 1 -80 106 0 56 4 92 13 100 20 21
124 8 153 -20z"/>
<path d="M4862 3323 l3 -188 35 0 35 0 5 65 5 65 252 3 253 2 6 24 c3 13 4 35
2 47 l-3 24 -255 5 c-140 3 -256 7 -257 8 -2 1 -3 31 -3 67 l0 65 -40 0 -40 0
2 -187z"/>
<path d="M1815 3486 c-84 -37 -120 -130 -119 -306 0 -136 12 -194 50 -253 48
-74 158 -98 244 -54 81 40 109 105 117 267 8 167 -24 285 -90 332 -39 28 -154
36 -202 14z m148 -96 c32 -38 41 -88 40 -233 -1 -102 -4 -124 -25 -165 -40
-81 -106 -82 -152 -2 -17 29 -21 57 -24 165 -6 193 21 265 98 265 30 0 43 -6
63 -30z"/>
<path d="M2296 3477 c-49 -28 -76 -77 -76 -140 0 -84 39 -131 159 -192 82 -41
102 -63 108 -117 13 -111 -126 -143 -174 -41 -15 32 -23 38 -53 41 -57 4 -66
-8 -47 -60 30 -79 93 -118 186 -118 123 2 194 67 194 180 0 95 -36 139 -172
210 -80 42 -101 66 -101 116 0 14 11 36 25 49 45 46 115 24 131 -40 6 -22 11
-25 55 -25 44 0 49 2 49 23 0 37 -43 101 -80 119 -52 27 -154 24 -204 -5z"/>
<path d="M2815 3488 c-43 -23 -85 -74 -102 -122 -22 -62 -25 -297 -5 -362 15
-50 48 -101 83 -126 37 -28 128 -35 184 -14 95 37 130 121 129 316 0 133 -10
187 -47 241 -39 58 -81 79 -156 79 -36 0 -75 -6 -86 -12z m139 -87 c34 -37 45
-92 46 -217 0 -183 -28 -254 -103 -254 -66 0 -98 75 -100 235 -2 130 8 188 39
225 31 37 90 42 118 11z"/>
<path d="M9165 3487 c-3 -6 -6 -50 -7 -97 l-3 -85 -105 0 -105 0 -3 88 c-2 77
-5 88 -20 85 -14 -3 -18 -18 -22 -88 l-5 -85 -90 0 -90 0 -3 93 c-2 73 -6 92
-17 92 -12 0 -15 -21 -15 -115 l0 -115 258 2 257 3 3 111 c2 94 0 113 -13 118
-9 3 -18 0 -20 -7z"/>
<path d="M0 3176 l0 -316 55 0 55 0 0 123 c0 82 4 127 12 135 7 7 39 12 73 12
125 0 190 62 190 180 -1 76 -19 117 -67 152 -30 21 -45 23 -175 26 l-143 3 0
-315z m257 210 c17 -20 23 -39 23 -76 0 -67 -29 -100 -93 -107 -70 -8 -77 2
-77 112 0 50 3 95 8 99 4 4 31 6 61 4 44 -4 59 -10 78 -32z"/>
<path d="M497 3483 c-10 -9 -8 -596 2 -611 5 -9 24 -12 52 -10 l44 3 3 143 3
143 87 -3 87 -3 3 -142 3 -143 49 0 50 0 0 315 0 315 -50 0 -49 0 -3 -122 -3
-123 -87 -3 -88 -3 0 126 0 125 -48 0 c-27 0 -52 -3 -55 -7z"/>
<path d="M1030 3174 l0 -315 48 3 47 3 3 313 2 312 -50 0 -50 0 0 -316z"/>
<path d="M1280 3175 l0 -315 154 0 c85 0 157 3 159 8 3 4 8 22 12 40 l7 32
-100 0 c-55 0 -107 3 -116 6 -14 5 -16 39 -16 275 l0 269 -50 0 -50 0 0 -315z"/>
<path d="M3232 3178 l3 -313 48 -3 47 -3 0 116 c0 64 5 125 10 136 9 16 22 19
76 19 121 0 183 53 191 162 4 52 0 71 -19 107 -40 78 -59 86 -219 89 l-139 4
2 -314z m222 231 c24 -11 56 -63 56 -91 0 -7 -5 -30 -11 -51 -8 -30 -18 -42
-44 -53 -42 -17 -97 -18 -113 -2 -16 16 -16 180 0 196 15 15 79 16 112 1z"/>
<path d="M3720 3174 l0 -315 48 3 47 3 5 140 5 140 85 0 85 0 3 -142 3 -143
49 0 50 0 0 315 0 315 -50 0 -49 0 -3 -122 -3 -123 -85 0 -85 0 -3 123 -3 122
-49 0 -50 0 0 -316z"/>
<path d="M4190 3486 c0 -2 36 -88 80 -191 l80 -187 0 -111 c0 -62 4 -118 9
-125 5 -9 24 -12 52 -10 l44 3 6 130 5 130 77 174 c42 96 77 179 77 183 0 5
-23 8 -52 6 l-51 -3 -47 -135 c-26 -74 -52 -136 -57 -137 -11 -4 -13 1 -71
162 l-39 110 -57 3 c-31 2 -56 1 -56 -2z"/>
<path d="M9444 3300 c-12 -4 -31 -21 -44 -37 -18 -23 -21 -37 -18 -81 8 -96
63 -127 223 -126 149 0 199 33 199 130 0 47 -4 58 -29 84 -17 16 -41 31 -55
32 -20 2 -26 -2 -28 -23 -2 -21 3 -29 28 -39 34 -14 47 -48 31 -78 -17 -32
-73 -45 -181 -40 -111 4 -140 19 -140 70 0 22 8 33 30 46 22 12 30 24 30 45 0
28 -10 32 -46 17z"/>
<path d="M8733 3145 c-60 -26 -82 -118 -44 -181 36 -60 148 -90 297 -80 157 9
214 47 214 138 0 63 -20 101 -64 122 -44 21 -66 20 -66 -1 1 -11 17 -26 43
-38 73 -35 76 -109 7 -149 -29 -17 -56 -22 -158 -25 -78 -2 -140 1 -167 9
-104 29 -125 131 -35 168 25 11 40 24 40 35 0 20 -23 21 -67 2z"/>
<path d="M4970 3071 c-78 -24 -114 -78 -114 -171 0 -50 5 -74 22 -101 48 -79
188 -117 361 -100 102 11 145 27 183 68 50 53 56 181 11 241 -19 25 -66 54
-110 67 -22 6 -23 3 -23 -44 0 -48 1 -50 35 -61 39 -13 55 -35 55 -78 0 -64
-70 -92 -230 -92 -117 0 -174 12 -207 43 -44 40 -22 119 37 132 28 6 30 9 30
56 0 52 -3 54 -50 40z"/>
<path d="M9466 2965 c-57 -20 -78 -46 -84 -103 -9 -101 45 -144 189 -150 101
-5 159 9 202 47 28 26 31 34 31 85 0 98 -60 136 -215 136 -46 -1 -102 -7 -123
-15z m263 -72 c32 -24 38 -58 16 -83 -38 -42 -215 -51 -285 -15 -24 13 -30 22
-30 49 0 59 46 77 184 72 68 -3 94 -8 115 -23z"/>
<path d="M8680 2760 c0 -19 7 -20 210 -20 116 0 210 -4 210 -9 0 -5 -93 -46
-207 -92 -206 -83 -208 -84 -208 -114 l0 -30 255 0 c220 0 255 2 255 15 0 13
-32 15 -218 18 -158 2 -217 6 -215 14 2 6 98 48 213 93 115 46 214 89 219 98
5 8 6 22 3 31 -6 14 -35 16 -262 16 -248 0 -255 -1 -255 -20z"/>
<path d="M1735 2681 c-18 -10 -45 -44 -63 -79 -36 -67 -64 -83 -108 -63 -36
16 -31 70 9 89 20 10 27 20 25 35 -5 33 -34 32 -68 -1 -26 -26 -30 -38 -30
-82 0 -61 27 -95 84 -105 50 -10 94 18 128 80 33 61 61 85 98 85 35 0 60 -23
60 -56 0 -24 -31 -64 -50 -64 -5 0 -10 -13 -10 -29 0 -25 3 -28 25 -23 41 7
75 56 75 107 0 24 -5 56 -12 70 -24 53 -106 71 -163 36z"/>
<path d="M3370 2677 c-38 -19 -63 -80 -68 -168 -8 -147 29 -224 110 -224 33 0
45 6 69 33 30 34 38 62 17 62 -7 0 -20 -15 -28 -33 -13 -28 -20 -32 -54 -32
-60 0 -78 31 -83 147 -6 109 8 161 50 192 26 19 30 19 55 5 15 -8 33 -27 40
-42 17 -36 36 -35 28 1 -14 59 -79 88 -136 59z"/>
<path d="M4203 2678 c-43 -21 -63 -84 -63 -196 0 -126 14 -166 65 -188 29 -12
44 -13 71 -4 36 12 64 43 64 72 0 26 -19 22 -29 -5 -13 -35 -36 -49 -73 -45
-50 5 -72 56 -71 173 0 99 17 156 52 174 33 18 71 3 89 -35 18 -39 32 -44 32
-11 -1 58 -76 94 -137 65z"/>
<path d="M2373 2626 c-250 -66 -235 -60 -231 -93 3 -26 8 -28 213 -80 116 -29
216 -53 223 -53 6 0 12 7 12 15 0 8 -17 19 -42 25 -74 19 -83 22 -95 32 -14
11 -18 105 -5 125 4 6 38 19 75 29 53 13 67 20 67 35 0 11 -3 19 -7 18 -5 0
-99 -24 -210 -53z m41 -52 c15 -39 3 -94 -21 -94 -38 0 -203 45 -200 54 4 12
147 54 188 55 16 1 29 -6 33 -15z"/>
<path d="M2770 2485 l0 -195 51 0 c104 0 146 44 156 169 8 92 -10 163 -49 196
-25 21 -40 25 -94 25 l-64 0 0 -195z m138 153 c30 -33 42 -72 42 -139 0 -129
-37 -193 -109 -187 l-36 3 -3 173 -2 172 43 0 c32 0 49 -6 65 -22z"/>
<path d="M3064 2667 c-2 -7 -3 -94 -2 -192 l3 -180 88 -3 c53 -2 87 1 87 7 0
6 -33 11 -72 13 l-73 3 -3 79 c-2 57 1 82 10 87 7 5 40 9 73 9 77 0 61 18 -20
22 l-60 3 0 70 0 70 68 3 c37 2 67 7 67 12 0 16 -160 12 -166 -3z"/>
<path d="M3590 2485 l0 -195 85 0 c101 0 115 18 18 22 l-68 3 0 85 0 85 63 3
c34 2 62 7 62 12 0 5 -28 10 -62 12 l-63 3 0 70 0 70 68 3 c97 4 83 22 -18 22
l-85 0 0 -195z"/>
<path d="M3840 2486 c0 -124 4 -196 10 -196 6 0 10 62 10 166 0 127 3 165 12
162 7 -3 42 -77 77 -166 50 -126 69 -162 83 -162 17 0 18 13 18 195 0 238 -18
270 -22 40 -2 -94 -7 -155 -13 -156 -5 -1 -38 68 -71 152 -50 125 -66 155 -83
157 -21 3 -21 1 -21 -192z"/>
<path d="M4400 2675 c0 -3 23 -59 50 -124 44 -105 50 -127 50 -190 0 -98 17
-89 22 12 3 72 10 96 52 190 26 60 45 111 42 115 -11 11 -25 -13 -60 -98 -19
-46 -38 -86 -44 -88 -5 -1 -27 40 -48 93 -21 53 -43 95 -51 95 -7 0 -13 -2
-13 -5z"/>
<path d="M6537 2630 c-14 -11 -39 -44 -56 -75 -43 -76 -89 -96 -126 -55 -23
25 -13 63 20 78 17 8 25 20 25 37 0 35 -33 33 -71 -4 -59 -59 -26 -171 55
-186 52 -10 100 16 132 72 43 75 63 93 104 93 45 0 60 -14 60 -57 0 -27 -6
-37 -30 -51 -23 -13 -30 -23 -28 -42 2 -19 8 -24 23 -22 87 15 112 154 38 211
-35 28 -111 29 -146 1z"/>
<path d="M6055 2628 c-3 -7 -6 -42 -7 -78 l-3 -65 -65 0 -65 0 -5 65 c-4 58
-7 65 -27 68 -22 3 -23 0 -23 -55 0 -33 -5 -64 -12 -71 -7 -7 -30 -12 -53 -12
-23 0 -46 5 -53 12 -7 7 -12 39 -12 75 0 61 -1 63 -25 63 l-26 0 3 -102 3
-103 205 0 205 0 3 99 c2 73 -1 102 -10 108 -18 11 -28 10 -33 -4z"/>
<path d="M6938 2634 c-5 -4 -8 -70 -8 -146 0 -130 1 -138 20 -138 16 0 19 8
22 57 l3 58 45 7 c53 9 80 37 80 83 0 54 -28 78 -96 83 -32 2 -62 0 -66 -4z
m106 -40 c36 -35 7 -98 -43 -92 -22 3 -26 8 -29 42 -2 21 -1 44 2 52 7 19 51
18 70 -2z"/>
<path d="M7157 2633 c-11 -10 -8 -194 3 -234 17 -61 100 -80 145 -34 24 23 25
30 25 150 0 115 -2 126 -17 123 -16 -3 -19 -19 -23 -126 -5 -127 -10 -141 -52
-142 -36 0 -48 38 -48 157 0 88 -3 113 -13 113 -8 0 -17 -3 -20 -7z"/>
<path d="M7407 2633 c-4 -3 -7 -69 -7 -145 0 -130 1 -138 20 -138 16 0 19 8
22 63 3 53 6 62 23 65 36 5 57 -21 63 -77 4 -41 8 -51 21 -49 12 3 15 13 13
48 -2 25 -8 57 -13 72 -9 21 -7 32 5 50 23 32 20 65 -9 93 -20 20 -34 25 -78
25 -29 0 -57 -3 -60 -7z m117 -56 c14 -39 -2 -61 -48 -65 l-36 -3 0 44 c0 52
5 59 44 55 23 -2 33 -10 40 -31z"/>
<path d="M7638 2634 c-5 -4 -8 -70 -8 -146 0 -130 1 -138 20 -138 16 0 19 8
22 57 l3 58 45 7 c53 9 80 37 80 83 0 54 -28 78 -96 83 -32 2 -62 0 -66 -4z
m106 -40 c36 -35 7 -98 -43 -92 -22 3 -26 8 -29 42 -2 21 -1 44 2 52 7 19 51
18 70 -2z"/>
<path d="M7887 2622 c-40 -44 -51 -169 -19 -232 31 -62 102 -66 145 -8 17 22
21 43 21 105 -1 82 -18 135 -49 147 -32 12 -82 6 -98 -12z m95 -34 c7 -13 12
-57 12 -100 1 -62 -3 -80 -19 -98 -24 -27 -56 -22 -72 10 -18 36 -17 160 3
188 20 29 60 29 76 0z"/>
<path d="M8112 2617 c-42 -45 -28 -86 43 -132 57 -36 72 -62 55 -95 -14 -26
-55 -26 -77 0 -19 21 -43 27 -43 9 0 -44 66 -72 119 -49 37 15 58 62 45 98 -5
15 -25 36 -44 49 -71 45 -80 54 -80 78 0 14 8 29 19 35 27 14 29 13 56 -16 13
-14 29 -23 34 -19 16 9 13 23 -9 45 -29 29 -90 27 -118 -3z"/>
<path d="M8320 2495 l0 -145 71 0 c52 0 70 3 67 13 -3 6 -25 13 -51 15 -40 3
-48 7 -53 28 -3 13 -3 35 0 48 5 21 13 25 48 28 52 4 65 28 15 28 -41 0 -67
21 -67 54 0 33 19 46 68 46 30 0 42 4 40 13 -3 7 -29 13 -71 15 l-67 3 0 -146z"/>
<path d="M9386 2615 c-15 -40 0 -45 147 -45 171 0 170 -5 -16 -75 -105 -40
-128 -52 -133 -72 -14 -52 -11 -53 211 -53 l205 0 0 25 0 24 -145 3 c-85 2
-145 7 -146 13 0 5 65 34 146 64 l146 55 -3 35 -3 36 -201 3 c-173 2 -203 0
-208 -13z"/>
<path d="M5385 2608 c-3 -7 -6 -58 -7 -113 l-3 -100 -95 0 -95 0 -5 100 -5
100 -30 0 -30 0 -3 -80 c-4 -131 1 -125 -92 -125 l-79 0 -3 108 -3 107 -35 0
-35 0 -3 -158 -3 -157 298 2 298 3 2 145 c2 80 0 150 -5 156 -12 18 -62 26
-67 12z"/>
<path d="M1765 2403 c-29 -7 -64 -42 -87 -88 -30 -59 -47 -75 -83 -75 -61 0
-76 54 -25 92 17 12 30 30 30 40 0 27 -46 23 -75 -7 -20 -19 -25 -34 -25 -75
0 -44 5 -56 29 -81 22 -21 39 -29 66 -29 61 0 84 18 131 102 33 58 74 79 113
57 40 -23 41 -71 2 -100 -20 -15 -31 -32 -31 -47 0 -21 3 -23 28 -18 46 11 72
50 72 109 0 62 -18 93 -66 113 -34 14 -44 15 -79 7z"/>
<path d="M8923 2347 l-243 -62 0 -32 c0 -22 6 -33 18 -37 39 -11 484 -116 494
-116 5 0 8 8 6 18 -2 12 -25 22 -83 37 l-80 20 -3 77 c-2 66 0 77 15 82 19 5
78 20 126 30 31 7 40 47 10 45 -10 -1 -127 -29 -260 -62z m65 -95 c4 -74 12
-71 -140 -37 -114 26 -126 30 -115 42 9 8 229 62 242 59 6 -2 11 -30 13 -64z"/>
<path d="M6440 2354 c-49 -9 -102 -38 -115 -63 -18 -36 -28 -113 -20 -150 l7
-31 201 2 202 3 3 62 c4 87 -15 128 -71 153 -44 19 -159 33 -207 24z m140 -64
c70 -13 92 -33 88 -79 l-3 -36 -152 -3 c-142 -2 -152 -1 -158 17 -26 82 78
129 225 101z"/>
<path d="M5693 2333 c-7 -2 -13 -15 -13 -28 0 -31 19 -35 196 -35 133 0 153
-2 167 -18 23 -25 21 -65 -4 -88 -19 -17 -41 -19 -191 -22 l-169 -3 3 -27 3
-27 156 -3 c186 -3 225 6 252 58 13 24 17 50 14 83 -6 64 -38 97 -104 108 -53
9 -290 10 -310 2z"/>
<path d="M2147 2313 c-4 -3 -7 -12 -7 -20 0 -10 44 -13 225 -13 218 0 225 1
225 20 0 19 -7 20 -218 20 -120 0 -222 -3 -225 -7z"/>
<path d="M9383 2254 c-3 -8 -2 -19 3 -24 5 -5 70 -11 144 -12 77 -2 135 -7
135 -12 0 -6 -59 -33 -132 -61 -73 -27 -137 -55 -143 -61 -7 -7 -10 -24 -8
-40 l3 -29 205 0 205 0 0 25 0 25 -130 2 c-71 1 -139 2 -149 2 -40 2 4 25 141
76 l138 52 3 36 3 37 -206 0 c-177 0 -206 -2 -212 -16z"/>
<path d="M11611 2193 c-76 -40 -61 -109 34 -160 33 -17 68 -41 77 -53 39 -49
7 -110 -57 -110 -34 0 -75 27 -75 50 0 6 -9 10 -19 10 -14 0 -18 -5 -14 -19
13 -49 89 -74 158 -51 27 9 41 21 51 46 25 60 -2 107 -81 139 -82 34 -112 95
-63 129 34 24 67 19 96 -14 30 -35 42 -38 42 -12 0 50 -89 76 -149 45z"/>
<path d="M11913 2203 c-28 -6 -63 -49 -63 -77 0 -35 28 -65 91 -96 87 -45 111
-97 63 -144 -32 -33 -124 -7 -124 34 0 6 -9 10 -20 10 -26 0 -25 -13 4 -47 22
-25 31 -28 84 -28 76 0 112 27 112 85 0 50 -22 76 -96 111 -64 31 -81 52 -72
95 9 49 99 56 120 9 13 -29 38 -33 38 -7 0 41 -71 70 -137 55z"/>
<path d="M9997 2193 c-4 -3 -7 -80 -7 -170 0 -156 1 -163 20 -163 18 0 20 7
20 79 0 91 0 91 88 91 75 0 56 18 -23 22 l-60 3 0 60 0 60 73 3 c39 2 72 7 72
12 0 11 -173 14 -183 3z"/>
<path d="M10295 2188 c-6 -20 -66 -228 -80 -280 -12 -44 -12 -48 4 -48 12 0
21 14 30 50 14 55 28 64 97 58 37 -3 40 -5 56 -53 9 -28 23 -51 32 -53 9 -2
16 2 16 8 0 6 -21 83 -47 171 -46 157 -47 159 -75 159 -16 0 -31 -6 -33 -12z
m63 -105 c12 -42 19 -80 16 -85 -3 -4 -25 -8 -50 -8 -39 0 -44 2 -44 23 0 22
27 123 37 140 11 18 21 1 41 -70z"/>
<path d="M10530 2030 c0 -144 2 -170 15 -170 13 0 15 26 15 170 0 144 -2 170
-15 170 -13 0 -15 -26 -15 -170z"/>
<path d="M10664 2187 c-2 -7 -3 -82 -2 -167 3 -137 5 -155 20 -158 15 -3 18 7
20 75 l3 78 46 3 c63 4 89 -27 89 -104 0 -41 4 -54 15 -54 24 0 21 115 -5 147
l-20 25 26 31 c21 25 25 38 20 66 -9 56 -35 71 -127 71 -56 0 -81 -4 -85 -13z
m158 -24 c22 -20 24 -76 2 -97 -19 -20 -53 -29 -90 -24 -27 3 -29 6 -32 57 -2
29 -1 60 2 67 8 20 95 18 118 -3z"/>
<path d="M10970 2030 c0 -144 2 -170 15 -170 13 0 15 22 15 140 0 77 4 140 8
140 4 0 38 -63 75 -141 59 -126 69 -140 89 -137 23 3 23 4 23 168 0 140 -2
165 -15 165 -13 0 -15 -21 -15 -129 0 -82 -4 -131 -11 -133 -5 -2 -39 57 -74
132 -55 117 -66 135 -86 135 l-24 0 0 -170z"/>
<path d="M11300 2030 l0 -170 96 0 c61 0 93 4 89 10 -3 6 -37 10 -75 10 -53 0
-69 4 -74 16 -10 27 -6 110 6 122 7 7 39 12 75 12 35 0 63 4 63 10 0 6 -28 10
-63 10 -73 0 -87 10 -87 61 0 65 5 69 81 69 39 0 69 4 69 10 0 6 -37 10 -90
10 l-90 0 0 -170z"/>
<path d="M4945 2171 c-69 -42 -85 -86 -85 -233 l0 -108 298 2 297 3 3 24 c2
12 1 34 -2 47 -6 24 -8 24 -125 24 l-118 0 -7 77 c-7 86 -26 127 -76 160 -43
30 -140 32 -185 4z m165 -106 c19 -20 24 -37 25 -78 l0 -52 -100 0 -100 0 0
52 c1 74 29 103 100 103 42 0 56 -5 75 -25z"/>
<path d="M2173 2156 c-26 -23 -28 -30 -31 -115 l-4 -91 226 0 c194 0 226 2
226 15 0 12 -17 15 -89 15 -119 0 -121 1 -121 64 0 28 4 56 8 62 15 22 52 34
111 34 69 0 91 6 91 27 0 12 -15 14 -84 12 -69 -3 -90 -8 -116 -27 l-31 -23
-30 25 c-42 36 -116 36 -156 2z m155 -41 c16 -19 22 -39 22 -74 0 -58 -5 -61
-95 -61 -80 0 -100 16 -91 73 4 22 11 48 17 59 24 45 108 47 147 3z"/>
<path d="M6981 2133 c-41 -158 -61 -248 -58 -262 2 -9 10 7 18 34 14 49 15 50
59 53 48 4 70 -13 70 -52 0 -12 4 -28 10 -36 22 -36 17 7 -19 146 -27 109 -42
150 -54 152 -11 2 -19 -8 -26 -35z m53 -73 c14 -60 14 -66 -1 -77 -9 -7 -22
-13 -28 -13 -6 0 -19 6 -28 13 -15 11 -15 17 -1 77 25 103 34 103 58 0z"/>
<path d="M7140 2157 l35 -12 3 -143 c3 -187 22 -180 22 8 l0 140 28 6 c51 11
47 12 -38 13 -79 0 -82 -1 -50 -12z"/>
<path d="M7347 2159 c40 -12 42 -20 46 -179 l3 -125 2 135 c1 74 6 141 11 148
4 7 21 17 37 22 22 6 10 8 -51 8 -66 0 -74 -1 -48 -9z"/>
<path d="M7544 2015 c0 -88 2 -123 3 -77 2 46 2 118 0 160 -1 42 -3 5 -3 -83z"/>
<path d="M7615 2165 c6 -2 22 -6 38 -9 l27 -6 0 -145 c0 -192 19 -194 22 -2
l3 142 35 12 c32 11 29 12 -50 12 -47 0 -80 -2 -75 -4z"/>
<path d="M7830 2035 c0 -131 1 -137 25 -160 30 -31 73 -32 109 -4 l26 20 -2
142 -2 142 -5 -136 c-6 -140 -13 -162 -52 -174 -19 -6 -59 10 -71 29 -4 6 -8
68 -8 138 0 74 -4 129 -10 133 -6 4 -10 -42 -10 -130z"/>
<path d="M8080 2016 l0 -156 54 0 c48 0 57 4 79 29 45 54 47 197 3 248 -18 21
-34 27 -79 31 l-57 4 0 -156z m86 134 c37 -15 51 -37 59 -91 16 -112 -22 -193
-88 -187 l-32 3 -3 134 c-3 155 1 164 64 141z"/>
<path d="M8320 2015 l0 -155 73 2 72 1 -60 6 -60 6 -3 66 c-3 74 0 77 78 80
25 2 20 4 -20 8 l-55 6 -3 57 c-3 63 -4 63 78 71 19 2 5 5 -32 5 l-68 2 0
-155z"/>
<path d="M1507 2104 c-4 -4 -7 -49 -7 -101 l0 -93 203 2 202 3 0 95 c0 91 -1
95 -22 98 -22 3 -23 0 -23 -62 0 -72 -11 -86 -67 -86 -67 0 -73 7 -73 76 0 62
-1 64 -25 64 -24 0 -25 -2 -25 -65 l0 -64 -36 -7 c-20 -4 -46 -2 -59 4 -21 10
-24 19 -27 74 -2 47 -7 64 -18 66 -9 1 -19 0 -23 -4z"/>
<path d="M8685 2099 c-10 -26 -1 -269 10 -272 6 -1 12 23 15 53 l5 55 240 5
c132 3 241 7 243 8 1 1 2 9 2 17 0 8 -1 16 -2 17 -2 1 -111 5 -243 8 l-240 5
-3 50 c-3 52 -17 80 -27 54z"/>
<path d="M6363 2026 c-44 -20 -56 -48 -57 -135 l-1 -76 208 -3 207 -2 0 24 c0
25 -2 25 -87 28 l-88 3 -3 36 c-4 49 17 69 72 69 78 0 106 10 106 36 0 23 -3
24 -72 24 -56 0 -81 -5 -107 -21 l-33 -20 -23 21 c-29 27 -82 34 -122 16z
m107 -66 c12 -12 20 -33 20 -55 0 -40 -18 -48 -91 -43 -43 3 -44 4 -47 40 -6
68 71 105 118 58z"/>
<path d="M5687 2024 c-4 -4 -7 -61 -7 -126 l0 -118 24 0 c22 0 25 5 28 43 l3
42 183 3 182 2 0 30 0 30 -174 0 c-190 0 -192 1 -198 60 -3 33 -24 51 -41 34z"/>
<path d="M9384 1895 c-4 -8 -4 -22 0 -30 5 -13 34 -15 208 -13 l203 3 3 28 3
27 -206 0 c-174 0 -207 -2 -211 -15z"/>
<path d="M2570 1796 c0 -109 3 -106 -106 -106 l-93 0 -3 77 c-2 48 -7 78 -15
80 -9 3 -13 -18 -15 -74 l-3 -78 -80 0 -80 0 -5 79 c-3 52 -9 81 -18 84 -10 3
-12 -19 -10 -100 l3 -103 223 -3 222 -2 0 104 c0 59 -4 108 -10 111 -6 4 -10
-21 -10 -69z"/>
<path d="M1507 1813 c-4 -3 -7 -15 -7 -25 0 -17 11 -18 136 -18 165 0 169 -9
28 -63 -161 -61 -164 -62 -164 -97 l0 -30 199 0 c202 0 226 4 200 36 -10 13
-35 15 -133 14 -67 -1 -127 -2 -133 -1 -36 3 0 23 120 66 72 26 138 53 146 60
9 9 11 23 7 39 l-6 26 -194 0 c-106 0 -196 -3 -199 -7z"/>
<path d="M8742 1753 c-48 -24 -62 -58 -62 -158 l0 -85 261 0 c243 0 260 1 257
18 -3 15 -18 17 -113 20 -72 2 -112 7 -117 15 -4 7 -8 35 -8 62 0 62 -15 93
-59 122 -41 28 -110 30 -159 6z m133 -38 c42 -17 57 -50 53 -114 l-3 -46 -105
0 -105 0 -3 44 c-5 64 4 89 41 111 38 24 75 25 122 5z"/>
<path d="M6491 1696 c-150 -35 -175 -44 -184 -63 -7 -15 -7 -31 0 -45 8 -18
36 -28 199 -65 104 -23 195 -43 202 -43 6 0 12 11 12 25 0 19 -7 26 -27 31
-79 17 -78 16 -78 75 l0 54 50 10 c44 10 50 14 53 38 3 24 0 27 -25 26 -15 -1
-106 -20 -202 -43z m67 -88 c4 -44 -3 -46 -106 -24 -96 21 -97 31 -5 52 92 20
107 16 111 -28z"/>
<path d="M5230 1715 c-52 -24 -69 -43 -110 -125 -50 -99 -68 -119 -112 -126
-30 -5 -41 -2 -62 19 -14 15 -26 37 -26 50 0 32 33 73 65 81 22 6 25 12 25 51
0 42 -2 45 -27 45 -39 0 -89 -33 -109 -72 -25 -47 -24 -154 1 -198 33 -55 68
-75 134 -75 80 0 114 28 175 143 38 72 55 94 83 107 65 31 128 -5 128 -75 0
-44 -18 -68 -62 -87 -31 -12 -33 -17 -33 -59 l0 -47 36 6 c71 12 108 51 124
135 17 91 -8 167 -71 214 -34 26 -115 32 -159 13z"/>
<path d="M5729 1715 c-35 -19 -49 -62 -49 -151 l0 -74 210 0 210 0 0 30 0 30
-89 0 c-100 0 -112 9 -91 66 15 38 26 44 85 44 78 0 97 8 93 38 -3 25 -4 25
-78 23 -55 -1 -82 -7 -101 -21 -26 -19 -27 -19 -60 6 -38 27 -89 31 -130 9z
m117 -70 c19 -19 24 -34 22 -58 l-3 -32 -67 -3 -68 -3 0 45 c0 35 5 48 22 60
32 23 65 20 94 -9z"/>
<path d="M9447 1642 c-15 -9 -40 -42 -55 -72 -25 -51 -27 -65 -27 -175 0 -103
4 -126 23 -165 12 -26 35 -54 53 -64 44 -26 131 -26 167 1 35 26 60 63 64 93
3 22 -1 25 -29 28 -29 3 -35 -1 -49 -31 -33 -69 -101 -69 -131 0 -22 53 -23
243 0 295 27 64 100 65 130 3 14 -28 22 -35 46 -35 17 0 33 4 36 10 12 19 -32
98 -64 114 -40 21 -128 20 -164 -2z"/>
<path d="M9844 1651 c-36 -16 -72 -69 -85 -125 -18 -83 -8 -250 19 -303 45
-88 173 -107 243 -36 79 79 79 347 0 435 -25 29 -35 32 -92 35 -35 1 -73 -1
-85 -6z m131 -91 c17 -30 20 -52 20 -155 0 -131 -11 -170 -54 -191 -30 -15
-59 -5 -85 30 -16 21 -21 46 -24 121 -8 173 17 239 86 233 29 -2 40 -10 57
-38z"/>
<path d="M10180 1404 l0 -255 28 3 27 3 5 180 c3 106 9 180 15 180 5 0 37 -74
71 -164 77 -206 75 -203 122 -199 l37 3 0 250 0 250 -30 0 -30 0 -5 -174 c-4
-127 -8 -170 -16 -160 -6 8 -34 77 -64 154 -69 182 -71 185 -120 185 l-40 0 0
-256z"/>
<path d="M10605 1649 c-3 -8 -4 -122 -3 -254 l3 -240 96 1 c81 0 101 4 132 22
53 33 79 95 85 202 8 142 -20 220 -91 257 -44 22 -214 31 -222 12z m164 -60
c42 -15 62 -55 68 -143 8 -100 -10 -179 -48 -211 -32 -27 -77 -33 -97 -13 -17
17 -17 349 0 366 15 15 36 15 77 1z"/>
<path d="M11017 1654 c-4 -4 -7 -95 -7 -203 0 -215 6 -244 62 -285 36 -26 138
-27 185 -3 62 33 68 58 68 287 l0 205 -35 0 -35 0 -5 -202 c-5 -192 -6 -204
-27 -224 -29 -29 -77 -29 -106 0 -21 20 -22 32 -27 224 l-5 202 -30 3 c-17 2
-34 0 -38 -4z"/>
<path d="M11502 1640 c-59 -36 -77 -94 -77 -245 0 -116 2 -135 23 -172 12 -24
36 -50 55 -60 42 -22 128 -21 162 1 32 21 65 74 65 104 0 20 -4 23 -32 20 -24
-2 -36 -10 -46 -31 -7 -15 -24 -34 -37 -43 -21 -13 -28 -14 -52 -2 -47 22 -58
59 -58 193 0 103 3 125 20 155 35 60 113 50 129 -16 5 -20 13 -24 41 -24 32 0
35 3 35 28 0 33 -30 81 -62 98 -37 21 -128 17 -166 -6z"/>
<path d="M11786 1642 c-12 -37 3 -51 57 -54 l52 -3 5 -215 5 -215 35 0 35 0 5
215 5 215 55 5 c53 5 55 6 55 35 l0 30 -152 3 c-141 2 -152 1 -157 -16z"/>
<path d="M2140 1456 c0 -105 2 -126 15 -126 11 0 15 12 15 49 0 35 4 51 16 55
9 3 103 6 210 6 165 0 194 2 194 15 0 12 -32 15 -207 17 l-208 3 -5 49 c-3 27
-11 51 -17 54 -10 3 -13 -26 -13 -122z"/>
<path d="M1548 1485 c-35 -19 -50 -71 -46 -150 l3 -60 194 -3 c110 -1 199 2
204 7 5 5 6 18 2 30 -6 19 -14 21 -91 21 l-85 0 3 42 c4 53 28 68 109 68 58 0
75 12 63 44 -7 19 -137 10 -176 -12 -25 -15 -29 -14 -47 2 -27 25 -99 30 -133
11z m114 -62 c11 -10 18 -30 18 -55 l0 -38 -64 0 c-53 0 -65 3 -68 18 -6 24 9
74 24 84 22 13 70 9 90 -9z"/>
<path d="M6395 1416 c-60 -23 -82 -54 -90 -130 -4 -36 -5 -72 -1 -81 4 -13 36
-15 211 -15 l205 0 0 68 c0 78 -21 121 -72 148 -45 24 -198 30 -253 10z m203
-52 c45 -9 72 -39 72 -79 l0 -35 -155 0 c-134 0 -156 2 -162 16 -11 29 11 68
47 86 36 18 137 24 198 12z"/>
<path d="M9165 1408 c-2 -7 -6 -51 -7 -98 l-3 -85 -105 0 -105 0 -3 88 c-2 77
-5 88 -20 85 -14 -3 -18 -18 -22 -88 l-5 -85 -90 0 -90 0 -3 93 c-2 73 -6 92
-17 92 -12 0 -15 -21 -15 -115 l0 -115 258 2 257 3 0 114 c0 83 -3 115 -12
118 -7 3 -15 -1 -18 -9z"/>
<path d="M5682 1363 l3 -28 208 -3 207 -2 0 30 0 30 -211 0 -210 0 3 -27z"/>
<path d="M5380 1161 c0 -90 -3 -110 -16 -115 -29 -11 -160 -6 -172 6 -8 8 -12
46 -12 105 l0 93 -35 0 -35 0 0 -93 c0 -59 -4 -97 -12 -105 -12 -12 -114 -17
-142 -6 -13 5 -16 25 -16 110 l0 104 -40 0 -40 0 0 -155 0 -155 298 2 297 3 3
135 c4 172 2 180 -43 180 l-35 0 0 -109z"/>
<path d="M5680 1240 c0 -23 5 -31 23 -35 12 -3 84 -18 160 -34 134 -28 157
-35 144 -47 -3 -3 -70 -19 -148 -35 -187 -38 -179 -35 -179 -70 0 -16 4 -29 9
-29 10 0 285 67 369 89 40 11 42 14 42 50 l0 39 -205 51 c-112 28 -207 51
-210 51 -3 0 -5 -13 -5 -30z"/>
<path d="M2142 1243 c3 -17 22 -18 223 -18 201 0 220 1 223 18 3 16 -13 17
-223 17 -210 0 -226 -1 -223 -17z"/>
<path d="M1504 1165 c-4 -8 -4 -22 0 -30 4 -13 36 -15 200 -15 120 0 197 4
201 10 3 6 3 19 0 30 -6 19 -15 20 -201 20 -164 0 -196 -2 -200 -15z"/>
<path d="M2213 1123 c-12 -2 -34 -18 -48 -35 -24 -28 -26 -37 -23 -112 l3 -81
223 -3 c217 -2 222 -2 222 18 0 19 -6 20 -105 20 l-105 0 0 53 c0 29 6 61 13
71 15 20 77 35 150 36 36 0 47 4 47 16 0 14 -13 15 -89 12 -77 -2 -93 -6 -114
-26 -22 -21 -25 -21 -38 -6 -28 34 -80 48 -136 37z m91 -44 c31 -15 48 -55 44
-105 l-3 -39 -87 -3 c-98 -3 -106 3 -93 78 11 67 74 98 139 69z"/>
<path d="M6311 1082 c-6 -11 -7 -22 -4 -26 3 -3 63 -6 132 -6 69 0 132 -4 140
-9 17 -11 2 -18 -161 -75 -112 -40 -130 -55 -108 -96 11 -20 18 -20 208 -18
195 3 197 3 200 25 3 22 2 22 -145 25 -89 2 -148 7 -148 13 0 5 65 33 145 61
l145 51 0 34 0 34 -197 3 c-185 2 -198 1 -207 -16z"/>
<path d="M8722 1060 c-79 -48 -69 -176 17 -220 79 -40 249 -49 363 -19 20 5
51 23 67 40 26 26 31 38 31 80 0 64 -20 102 -64 123 -45 21 -66 20 -66 -3 0
-13 9 -21 30 -26 36 -8 70 -48 70 -84 0 -69 -74 -101 -234 -101 -115 0 -164
11 -203 44 -38 33 -38 89 1 122 15 13 36 24 47 24 12 0 19 7 19 20 0 26 -34
26 -78 0z"/>
<path d="M1697 1015 c-98 -23 -183 -47 -188 -52 -6 -6 -9 -26 -7 -44 l3 -34
180 -42 c99 -24 189 -42 200 -40 13 1 20 9 20 22 0 15 -10 23 -40 30 -58 15
-65 22 -65 70 0 48 7 55 65 70 33 8 40 14 40 35 0 15 -6 25 -15 26 -8 1 -95
-17 -193 -41z m51 -85 c2 -18 -2 -36 -8 -40 -15 -9 -161 22 -163 35 -2 10 137
45 158 41 6 -2 11 -17 13 -36z"/>
<path d="M4945 821 c-68 -31 -80 -64 -80 -216 l0 -130 292 -3 293 -2 6 25 c3
14 3 36 0 50 -6 25 -6 25 -130 25 -140 0 -142 1 -130 77 10 66 38 83 135 83
43 0 90 4 104 10 23 9 26 15 23 47 l-3 38 -75 3 c-104 4 -153 -5 -185 -33 -32
-30 -46 -31 -63 -4 -30 47 -119 62 -187 30z m158 -112 c13 -17 17 -36 15 -78
l-3 -56 -90 0 -90 0 0 59 c1 52 4 61 30 83 24 21 36 24 74 20 31 -3 51 -12 64
-28z"/>
<path d="M2183 780 c-44 -26 -62 -84 -42 -137 23 -61 79 -85 204 -91 175 -8
255 32 255 126 0 62 -52 122 -105 122 -25 0 -17 -30 12 -41 43 -16 63 -39 63
-71 0 -77 -58 -102 -224 -97 -97 4 -119 7 -143 25 -59 44 -53 112 12 140 36
15 48 44 18 44 -10 0 -32 -9 -50 -20z"/>
<path d="M6496 746 c-155 -36 -180 -44 -189 -64 -7 -15 -7 -30 0 -45 9 -20 34
-28 199 -65 104 -23 195 -42 202 -42 6 0 12 11 12 24 0 20 -8 25 -52 37 -53
14 -53 14 -56 58 -4 52 5 63 61 76 35 9 43 15 45 38 4 35 1 35 -222 -17z m62
-88 c3 -36 2 -38 -25 -38 -48 1 -146 25 -150 37 -3 7 19 16 54 23 32 6 63 13
68 15 32 12 50 -1 53 -37z"/>
<path d="M1500 675 l0 -95 203 2 c194 3 202 4 202 23 0 18 -8 20 -80 23 -43 2
-85 8 -92 13 -6 6 -13 36 -15 67 -2 43 -7 57 -18 57 -11 0 -16 -14 -18 -55 -4
-67 -14 -80 -62 -80 -65 0 -70 5 -70 76 0 62 -1 64 -25 64 -25 0 -25 0 -25
-95z"/>
<path d="M8732 703 c-83 -41 -83 -170 0 -221 49 -30 146 -45 251 -40 103 6
167 27 197 66 28 35 28 120 -1 156 -38 48 -109 73 -109 39 1 -11 17 -26 43
-38 72 -34 76 -109 9 -148 -71 -41 -306 -43 -369 -2 -69 46 -67 116 4 150 26
12 42 27 43 38 0 21 -25 22 -68 0z"/>
<path d="M6306 514 c-3 -9 -6 -55 -6 -104 0 -102 5 -120 31 -120 13 0 19 7 19
23 0 12 3 32 6 44 6 22 10 23 183 25 l176 3 0 25 0 25 -176 3 c-173 2 -177 3
-183 25 -3 12 -6 32 -6 45 0 26 -34 31 -44 6z"/>
<path d="M8935 315 l-250 -62 0 -34 0 -34 235 -57 c253 -62 280 -66 280 -43 0
13 -26 23 -105 40 -70 15 -66 10 -63 93 l3 77 80 21 c53 14 81 26 83 36 2 9
-1 18 -5 20 -4 3 -120 -23 -258 -57z m53 -97 c3 -56 2 -58 -23 -58 -24 0 -193
34 -224 46 -28 10 6 26 105 49 138 32 138 32 142 -37z"/>
<path d="M6543 231 c-18 -11 -42 -40 -54 -63 -42 -85 -94 -112 -132 -70 -25
27 -21 49 13 74 19 14 30 31 30 46 0 21 -3 23 -27 18 -43 -10 -73 -50 -73 -97
0 -81 52 -128 126 -116 45 8 70 29 100 89 27 54 57 78 96 78 35 0 58 -24 58
-61 0 -23 -7 -34 -30 -47 -24 -13 -30 -24 -30 -50 l0 -32 41 20 c71 37 89 135
35 197 -31 36 -107 43 -153 14z"/>
</g>
</svg>
